<svg width="49" height="49" viewBox="0 0 49 49" fill="none" xmlns="http://www.w3.org/2000/svg">
<path fill-rule="evenodd" clip-rule="evenodd" d="M24.59 12.6065C24.59 19.2907 19.1713 24.7094 12.4872 24.7094C5.80614 24.7019 0.391763 19.2875 0.384277 12.6065C0.384277 5.92238 5.80299 0.503662 12.4872 0.503662C19.1713 0.503662 24.59 5.92238 24.59 12.6065ZM22.9763 12.6065C22.9763 6.81355 18.2801 2.11738 12.4872 2.11738C6.69692 2.12408 2.00469 6.8163 1.99799 12.6065C1.99799 18.3995 6.69416 23.0957 12.4872 23.0957C18.2801 23.0957 22.9763 18.3995 22.9763 12.6065ZM23.6945 3.8681C24.5277 3.7771 25.3653 3.7314 26.2037 3.731C38.6809 3.731 48.7957 13.8459 48.7957 26.323C48.7957 38.8002 38.6809 48.9151 26.2037 48.9151C13.7266 48.9151 3.61168 38.8002 3.61168 26.323C3.61207 25.4847 3.65778 24.6471 3.74878 23.8138L5.35383 23.9911C4.37008 32.8394 9.08279 41.3433 17.1065 45.1999C25.1305 49.0565 34.7151 47.4243 41.01 41.1293C47.3049 34.8344 48.9372 25.2498 45.0806 17.2258C41.224 9.20211 32.72 4.4894 23.8718 5.47315L23.6945 3.8681ZM7.646 16.6408H11.6803V15.0271H8.45286V13.4134H10.8734C11.319 13.4134 11.6803 13.0521 11.6803 12.6065V9.37907C11.6803 8.93348 11.319 8.57221 10.8734 8.57221H7.646C7.20042 8.57221 6.83915 8.93348 6.83915 9.37907V10.9928H8.45286V10.1859H10.0666V11.7996H7.646C7.20042 11.7996 6.83915 12.1609 6.83915 12.6065V15.8339C6.83915 16.2795 7.20042 16.6408 7.646 16.6408ZM14.1007 13.4134H16.5212V16.6408H18.135V8.57221H16.5212V11.7996H14.9075V8.57221H13.2938V12.6065C13.2938 13.0521 13.6551 13.4134 14.1007 13.4134ZM6.85688 25.4824C6.84545 25.7582 6.83915 26.0414 6.83915 26.3231C6.83915 37.0179 15.5089 45.6877 26.2037 45.6877C36.8986 45.6877 45.5683 37.0179 45.5683 26.3231C45.5683 15.6283 36.8986 6.95851 26.2037 6.95851C25.9221 6.95851 25.6388 6.96482 25.363 6.97624L25.4308 8.58996C25.6872 8.57814 25.9449 8.57223 26.2037 8.57223C36.0074 8.57223 43.9546 16.5195 43.9546 26.3231C43.9546 36.1268 36.0074 44.074 26.2037 44.074C16.4001 44.074 8.45286 36.1268 8.45286 26.3231C8.45286 26.0643 8.45838 25.8066 8.4698 25.5501L6.85688 25.4824ZM27.0104 10.186H25.3967V11.7997H27.0104V10.186ZM10.0663 25.5164H11.6801V27.1301H10.0663V25.5164ZM15.3636 36.0219L14.2223 37.1633L15.3636 38.3042L16.5046 37.1633L15.3636 36.0219ZM25.3967 40.8464H27.0104V42.4601H25.3967V40.8464ZM37.0441 36.0222L35.9031 37.1631L37.0441 38.3041L38.1854 37.1631L37.0441 36.0222ZM40.7273 25.5164H42.341V27.1301H40.7273V25.5164ZM37.0441 14.3419L35.9031 15.4828L37.0441 16.6242L38.1854 15.4828L37.0441 14.3419ZM15.7145 25.5162V27.1299H23.5869L25.6332 29.1762C25.9484 29.491 26.459 29.491 26.7742 29.1762L29.0569 26.8935C29.3717 26.5783 29.3717 26.0677 29.0569 25.7525L27.0106 23.7062V14.2201H25.3969V23.7062L23.5869 25.5162H15.7145ZM26.2037 25.1813L27.3454 26.323L26.2037 27.4648L25.062 26.323L26.2037 25.1813Z" fill="white"/>
</svg>
