<svg width="63" height="47" viewBox="0 0 63 47" fill="none" xmlns="http://www.w3.org/2000/svg">
<mask id="path-1-inside-1" fill="white">
<path fill-rule="evenodd" clip-rule="evenodd" d="M33.4538 0.506714H28.321C23.2331 0.506714 19.0911 4.64584 19.089 9.7347L19.088 11.7883C19.087 12.6107 19.4065 13.384 19.9885 13.9651C20.5695 14.5471 21.3429 14.8677 22.1653 14.8677H23.1961V12.8161H22.1653C21.8908 12.8161 21.6334 12.7089 21.4391 12.5156C21.2457 12.3212 21.1395 12.0638 21.1395 11.7893L21.1406 9.73483C21.1426 5.77804 24.3631 2.55839 28.321 2.55839H33.4538C39.6755 2.55839 44.7373 7.6202 44.7373 13.8419V17.945H46.7889V13.8419C46.7889 6.48903 40.8066 0.506714 33.4538 0.506714ZM33.4539 6.66144H28.325C26.6281 6.66144 25.2477 8.04187 25.2477 9.73876V10.7645H27.2992V9.73876C27.2992 9.17279 27.759 8.71298 28.325 8.71298H33.4539C36.2818 8.71298 38.5827 11.0139 38.5827 13.8418V21.0523C38.5827 24.0665 37.4087 26.8994 35.2781 29.0311L32.8529 31.4563C31.6438 32.6654 30.035 33.3315 28.325 33.3315C27.1941 33.3315 26.2735 32.4109 26.2735 31.28C26.2735 30.1491 27.1941 29.2284 28.325 29.2284H29.3508C31.0477 29.2284 32.4281 27.848 32.4281 26.1511H30.3766C30.3766 26.7171 29.9167 27.1769 29.3508 27.1769H28.325C26.0621 27.1769 24.2219 29.0171 24.2219 31.28C24.2219 33.5429 26.0621 35.3831 28.325 35.3831C30.5839 35.3831 32.7066 34.5036 34.3033 32.9067L36.7285 30.4816C39.2469 27.9633 40.6343 24.6145 40.6343 21.0523V13.8418C40.6343 9.88301 37.4127 6.66144 33.4539 6.66144ZM32.4279 17.9448V19.9964H34.4795V22.0479H32.4279V24.0995H30.3764V22.0479H28.3248V19.9964H30.3764V17.9448H32.4279ZM29.3508 12.8158H27.2993C25.6024 12.8158 24.2219 14.1962 24.2219 15.8931V19.9962H20.1188C19.8464 19.9962 19.586 20.1044 19.3936 20.2968L16.0158 23.6746L9.56056 17.2194C9.15987 16.8187 8.51068 16.8187 8.10999 17.2194L5.33335 19.9962H0.62915V22.0478H5.75802C6.03049 22.0478 6.29091 21.9395 6.48324 21.7472L8.83534 19.3952L15.2905 25.8504C15.4909 26.0508 15.7533 26.151 16.0158 26.151C16.2782 26.151 16.5407 26.0508 16.741 25.8504L20.5436 22.0478H25.2477C25.8147 22.0478 26.2735 21.589 26.2735 21.022V15.8931C26.2735 15.3271 26.7333 14.8673 27.2993 14.8673H29.3508C29.9168 14.8673 30.3766 15.3271 30.3766 15.8931H32.4281C32.4281 14.1962 31.0477 12.8158 29.3508 12.8158ZM57.3473 20.2969C57.5396 20.1046 57.8 19.9964 58.0725 19.9964H62.1756V22.0479H58.4973L55.7205 24.8248C55.3198 25.2255 54.6707 25.2255 54.27 24.8248L49.8663 20.4212L48.54 21.7474C48.3477 21.9397 48.0872 22.0479 47.8148 22.0479H46.7639C46.5145 27.2288 44.3788 32.0632 40.6854 35.7566L37.557 38.885V40.5118C37.557 43.9057 34.7963 46.6665 31.4024 46.6665C28.0085 46.6665 25.2477 43.9057 25.2477 40.5118V38.4603H27.2993V40.5118C27.2993 42.7747 29.1395 44.6149 31.4024 44.6149C33.6652 44.6149 35.5055 42.7747 35.5055 40.5118V38.4603C35.5055 38.1878 35.6137 37.9274 35.806 37.7351L39.2349 34.3062C42.7831 30.758 44.7374 26.0398 44.7374 21.0221C44.7374 20.4551 45.1962 19.9964 45.7632 19.9964H47.3901L49.141 18.2454C49.5417 17.8447 50.1908 17.8447 50.5915 18.2454L54.9952 22.649L57.3473 20.2969Z"/>
</mask>
<path fill-rule="evenodd" clip-rule="evenodd" d="M33.4538 0.506714H28.321C23.2331 0.506714 19.0911 4.64584 19.089 9.7347L19.088 11.7883C19.087 12.6107 19.4065 13.384 19.9885 13.9651C20.5695 14.5471 21.3429 14.8677 22.1653 14.8677H23.1961V12.8161H22.1653C21.8908 12.8161 21.6334 12.7089 21.4391 12.5156C21.2457 12.3212 21.1395 12.0638 21.1395 11.7893L21.1406 9.73483C21.1426 5.77804 24.3631 2.55839 28.321 2.55839H33.4538C39.6755 2.55839 44.7373 7.6202 44.7373 13.8419V17.945H46.7889V13.8419C46.7889 6.48903 40.8066 0.506714 33.4538 0.506714ZM33.4539 6.66144H28.325C26.6281 6.66144 25.2477 8.04187 25.2477 9.73876V10.7645H27.2992V9.73876C27.2992 9.17279 27.759 8.71298 28.325 8.71298H33.4539C36.2818 8.71298 38.5827 11.0139 38.5827 13.8418V21.0523C38.5827 24.0665 37.4087 26.8994 35.2781 29.0311L32.8529 31.4563C31.6438 32.6654 30.035 33.3315 28.325 33.3315C27.1941 33.3315 26.2735 32.4109 26.2735 31.28C26.2735 30.1491 27.1941 29.2284 28.325 29.2284H29.3508C31.0477 29.2284 32.4281 27.848 32.4281 26.1511H30.3766C30.3766 26.7171 29.9167 27.1769 29.3508 27.1769H28.325C26.0621 27.1769 24.2219 29.0171 24.2219 31.28C24.2219 33.5429 26.0621 35.3831 28.325 35.3831C30.5839 35.3831 32.7066 34.5036 34.3033 32.9067L36.7285 30.4816C39.2469 27.9633 40.6343 24.6145 40.6343 21.0523V13.8418C40.6343 9.88301 37.4127 6.66144 33.4539 6.66144ZM32.4279 17.9448V19.9964H34.4795V22.0479H32.4279V24.0995H30.3764V22.0479H28.3248V19.9964H30.3764V17.9448H32.4279ZM29.3508 12.8158H27.2993C25.6024 12.8158 24.2219 14.1962 24.2219 15.8931V19.9962H20.1188C19.8464 19.9962 19.586 20.1044 19.3936 20.2968L16.0158 23.6746L9.56056 17.2194C9.15987 16.8187 8.51068 16.8187 8.10999 17.2194L5.33335 19.9962H0.62915V22.0478H5.75802C6.03049 22.0478 6.29091 21.9395 6.48324 21.7472L8.83534 19.3952L15.2905 25.8504C15.4909 26.0508 15.7533 26.151 16.0158 26.151C16.2782 26.151 16.5407 26.0508 16.741 25.8504L20.5436 22.0478H25.2477C25.8147 22.0478 26.2735 21.589 26.2735 21.022V15.8931C26.2735 15.3271 26.7333 14.8673 27.2993 14.8673H29.3508C29.9168 14.8673 30.3766 15.3271 30.3766 15.8931H32.4281C32.4281 14.1962 31.0477 12.8158 29.3508 12.8158ZM57.3473 20.2969C57.5396 20.1046 57.8 19.9964 58.0725 19.9964H62.1756V22.0479H58.4973L55.7205 24.8248C55.3198 25.2255 54.6707 25.2255 54.27 24.8248L49.8663 20.4212L48.54 21.7474C48.3477 21.9397 48.0872 22.0479 47.8148 22.0479H46.7639C46.5145 27.2288 44.3788 32.0632 40.6854 35.7566L37.557 38.885V40.5118C37.557 43.9057 34.7963 46.6665 31.4024 46.6665C28.0085 46.6665 25.2477 43.9057 25.2477 40.5118V38.4603H27.2993V40.5118C27.2993 42.7747 29.1395 44.6149 31.4024 44.6149C33.6652 44.6149 35.5055 42.7747 35.5055 40.5118V38.4603C35.5055 38.1878 35.6137 37.9274 35.806 37.7351L39.2349 34.3062C42.7831 30.758 44.7374 26.0398 44.7374 21.0221C44.7374 20.4551 45.1962 19.9964 45.7632 19.9964H47.3901L49.141 18.2454C49.5417 17.8447 50.1908 17.8447 50.5915 18.2454L54.9952 22.649L57.3473 20.2969Z" fill="#1F4D7F"/>
<path d="M19.089 9.7347L19.2883 9.7348V9.73478L19.089 9.7347ZM19.088 11.7883L19.2873 11.7885V11.7884L19.088 11.7883ZM19.9885 13.9651L20.1296 13.8243L20.1293 13.8241L19.9885 13.9651ZM23.1961 14.8677V15.067H23.3954V14.8677H23.1961ZM23.1961 12.8161H23.3954V12.6168H23.1961V12.8161ZM21.4391 12.5156L21.2977 12.6562L21.2985 12.6569L21.4391 12.5156ZM21.1395 11.7893L20.9402 11.7892V11.7893H21.1395ZM21.1406 9.73483L20.9412 9.73472V9.73473L21.1406 9.73483ZM44.7373 17.945H44.538V18.1443H44.7373V17.945ZM46.7889 17.945V18.1443H46.9882V17.945H46.7889ZM25.2477 10.7645H25.0483V10.9639H25.2477V10.7645ZM27.2992 10.7645V10.9639H27.4986V10.7645H27.2992ZM35.2781 29.0311L35.419 29.1721L35.4191 29.172L35.2781 29.0311ZM32.8529 31.4563L32.7119 31.3153L32.8529 31.4563ZM32.4281 26.1511H32.6274V25.9518H32.4281V26.1511ZM30.3766 26.1511V25.9518H30.1772V26.1511H30.3766ZM34.3033 32.9067L34.1624 32.7658L34.1624 32.7658L34.3033 32.9067ZM36.7285 30.4816L36.5876 30.3406L36.5876 30.3406L36.7285 30.4816ZM32.4279 19.9964H32.2286V20.1957H32.4279V19.9964ZM32.4279 17.9448H32.6273V17.7455H32.4279V17.9448ZM34.4795 19.9964H34.6788V19.7971H34.4795V19.9964ZM34.4795 22.0479V22.2473H34.6788V22.0479H34.4795ZM32.4279 22.0479V21.8486H32.2286V22.0479H32.4279ZM32.4279 24.0995V24.2988H32.6273V24.0995H32.4279ZM30.3764 24.0995H30.177V24.2988H30.3764V24.0995ZM30.3764 22.0479H30.5757V21.8486H30.3764V22.0479ZM28.3248 22.0479H28.1255V22.2473H28.3248V22.0479ZM28.3248 19.9964V19.7971H28.1255V19.9964H28.3248ZM30.3764 19.9964V20.1957H30.5757V19.9964H30.3764ZM30.3764 17.9448V17.7455H30.177V17.9448H30.3764ZM24.2219 19.9962V20.1955H24.4213V19.9962H24.2219ZM19.3936 20.2968L19.2527 20.1558V20.1558L19.3936 20.2968ZM16.0158 23.6746L15.8748 23.8156L16.0158 23.9565L16.1567 23.8156L16.0158 23.6746ZM9.56056 17.2194L9.70151 17.0785V17.0785L9.56056 17.2194ZM8.10999 17.2194L7.96903 17.0785L7.96903 17.0785L8.10999 17.2194ZM5.33335 19.9962V20.1955H5.41592L5.47431 20.1372L5.33335 19.9962ZM0.62915 19.9962V19.7969H0.429811V19.9962H0.62915ZM0.62915 22.0478H0.429811V22.2471H0.62915V22.0478ZM6.48324 21.7472L6.34229 21.6062L6.34229 21.6063L6.48324 21.7472ZM8.83534 19.3952L8.97629 19.2543L8.83534 19.1133L8.69439 19.2543L8.83534 19.3952ZM15.2905 25.8504L15.1496 25.9914H15.1496L15.2905 25.8504ZM16.741 25.8504L16.6 25.7095L16.6 25.7095L16.741 25.8504ZM20.5436 22.0478V21.8484H20.4611L20.4027 21.9068L20.5436 22.0478ZM30.3766 15.8931H30.1772V16.0925H30.3766V15.8931ZM32.4281 15.8931V16.0925H32.6275V15.8931H32.4281ZM57.3473 20.2969L57.2063 20.156L57.2063 20.156L57.3473 20.2969ZM62.1756 19.9964H62.3749V19.797H62.1756V19.9964ZM62.1756 22.0479V22.2473H62.3749V22.0479H62.1756ZM58.4973 22.0479V21.8486H58.4147L58.3563 21.907L58.4973 22.0479ZM55.7205 24.8248L55.8615 24.9658L55.8615 24.9658L55.7205 24.8248ZM54.27 24.8248L54.4109 24.6839L54.27 24.8248ZM49.8663 20.4212L50.0073 20.2802L49.8663 20.1393L49.7254 20.2802L49.8663 20.4212ZM48.54 21.7474L48.399 21.6064L48.399 21.6064L48.54 21.7474ZM46.7639 22.0479V21.8486H46.5739L46.5647 22.0383L46.7639 22.0479ZM37.557 38.885L37.4161 38.744L37.3577 38.8024V38.885H37.557ZM25.2477 38.4603V38.2609H25.0484V38.4603H25.2477ZM27.2993 38.4603H27.4986V38.2609H27.2993V38.4603ZM47.3901 19.9964V20.1957H47.4727L47.5311 20.1373L47.3901 19.9964ZM49.141 18.2454L49 18.1044L49 18.1044L49.141 18.2454ZM50.5915 18.2454L50.4506 18.3863L50.5915 18.2454ZM54.9952 22.649L54.8542 22.79L54.9952 22.9309L55.1361 22.79L54.9952 22.649ZM28.321 0.706054H33.4538V0.307374H28.321V0.706054ZM19.2883 9.73478C19.2903 4.756 23.3432 0.706054 28.321 0.706054V0.307374C23.1231 0.307374 18.8918 4.53567 18.8897 9.73462L19.2883 9.73478ZM19.2873 11.7884L19.2883 9.7348L18.8897 9.7346L18.8886 11.7882L19.2873 11.7884ZM20.1293 13.8241C19.5849 13.2805 19.2864 12.558 19.2873 11.7885L18.8886 11.7881C18.8875 12.6634 19.2281 13.4876 19.8476 14.1062L20.1293 13.8241ZM22.1653 14.6683C21.3958 14.6683 20.6731 14.3688 20.1296 13.8243L19.8474 14.106C20.4658 14.7254 21.29 15.067 22.1653 15.067V14.6683ZM23.1961 14.6683H22.1653V15.067H23.1961V14.6683ZM22.9967 12.8161V14.8677H23.3954V12.8161H22.9967ZM22.1653 13.0155H23.1961V12.6168H22.1653V13.0155ZM21.2985 12.6569C21.5299 12.8871 21.8376 13.0155 22.1653 13.0155V12.6168C21.9439 12.6168 21.737 12.5308 21.5796 12.3742L21.2985 12.6569ZM20.9402 11.7893C20.9402 12.1165 21.0672 12.4244 21.2977 12.6562L21.5804 12.375C21.4242 12.218 21.3389 12.0112 21.3389 11.7893H20.9402ZM20.9412 9.73473L20.9402 11.7892L21.3389 11.7894L21.3399 9.73493L20.9412 9.73473ZM28.321 2.35905C24.2531 2.35905 20.9433 5.66789 20.9412 9.73472L21.3399 9.73493C21.3419 5.88818 24.4732 2.75773 28.321 2.75773V2.35905ZM33.4538 2.35905H28.321V2.75773H33.4538V2.35905ZM44.9367 13.8419C44.9367 7.51011 39.7856 2.35905 33.4538 2.35905V2.75773C39.5654 2.75773 44.538 7.73029 44.538 13.8419H44.9367ZM44.9367 17.945V13.8419H44.538V17.945H44.9367ZM46.7889 17.7457H44.7373V18.1443H46.7889V17.7457ZM46.5895 13.8419V17.945H46.9882V13.8419H46.5895ZM33.4538 0.706054C40.6965 0.706054 46.5895 6.59912 46.5895 13.8419H46.9882C46.9882 6.37893 40.9167 0.307374 33.4538 0.307374V0.706054ZM28.325 6.86077H33.4539V6.4621H28.325V6.86077ZM25.447 9.73876C25.447 8.15196 26.7382 6.86077 28.325 6.86077V6.4621C26.518 6.4621 25.0483 7.93178 25.0483 9.73876H25.447ZM25.447 10.7645V9.73876H25.0483V10.7645H25.447ZM27.2992 10.5652H25.2477V10.9639H27.2992V10.5652ZM27.0999 9.73876V10.7645H27.4986V9.73876H27.0999ZM28.325 8.51364C27.6489 8.51364 27.0999 9.06269 27.0999 9.73876H27.4986C27.4986 9.28288 27.8691 8.91232 28.325 8.91232V8.51364ZM33.4539 8.51364H28.325V8.91232H33.4539V8.51364ZM38.7821 13.8418C38.7821 10.9038 36.3919 8.51364 33.4539 8.51364V8.91232C36.1717 8.91232 38.3834 11.124 38.3834 13.8418H38.7821ZM38.7821 21.0523V13.8418H38.3834V21.0523H38.7821ZM35.4191 29.172C37.5871 27.003 38.7821 24.1194 38.7821 21.0523H38.3834C38.3834 24.0136 37.2304 26.7959 35.1371 28.8902L35.4191 29.172ZM32.9939 31.5973L35.419 29.1721L35.1371 28.8902L32.7119 31.3153L32.9939 31.5973ZM28.325 33.5309C30.0878 33.5309 31.7473 32.8438 32.9939 31.5973L32.7119 31.3153C31.5402 32.4871 29.9821 33.1322 28.325 33.1322V33.5309ZM26.0741 31.28C26.0741 32.521 27.084 33.5309 28.325 33.5309V33.1322C27.3042 33.1322 26.4728 32.3008 26.4728 31.28H26.0741ZM28.325 29.0291C27.084 29.0291 26.0741 30.039 26.0741 31.28H26.4728C26.4728 30.2592 27.3042 29.4278 28.325 29.4278V29.0291ZM29.3508 29.0291H28.325V29.4278H29.3508V29.0291ZM32.2288 26.1511C32.2288 27.7379 30.9376 29.0291 29.3508 29.0291V29.4278C31.1578 29.4278 32.6274 27.9581 32.6274 26.1511H32.2288ZM30.3766 26.3505H32.4281V25.9518H30.3766V26.3505ZM29.3508 27.3762C30.0268 27.3762 30.5759 26.8272 30.5759 26.1511H30.1772C30.1772 26.607 29.8067 26.9776 29.3508 26.9776V27.3762ZM28.325 27.3762H29.3508V26.9776H28.325V27.3762ZM24.4213 31.28C24.4213 29.1272 26.1722 27.3762 28.325 27.3762V26.9776C25.9521 26.9776 24.0226 28.907 24.0226 31.28H24.4213ZM28.325 35.1838C26.1722 35.1838 24.4213 33.4328 24.4213 31.28H24.0226C24.0226 33.6529 25.9521 35.5824 28.325 35.5824V35.1838ZM34.1624 32.7658C32.603 34.3253 30.531 35.1838 28.325 35.1838V35.5824C30.6368 35.5824 32.8102 34.682 34.4443 33.0477L34.1624 32.7658ZM36.5876 30.3406L34.1624 32.7658L34.4443 33.0477L36.8695 30.6225L36.5876 30.3406ZM40.4349 21.0523C40.4349 24.5616 39.0686 27.8597 36.5876 30.3406L36.8695 30.6225C39.4253 28.0669 40.8336 24.6674 40.8336 21.0523H40.4349ZM40.4349 13.8418V21.0523H40.8336V13.8418H40.4349ZM33.4539 6.86077C37.3026 6.86077 40.4349 9.9931 40.4349 13.8418H40.8336C40.8336 9.77291 37.5228 6.4621 33.4539 6.4621V6.86077ZM32.6273 19.9964V17.9448H32.2286V19.9964H32.6273ZM34.4795 19.7971H32.4279V20.1957H34.4795V19.7971ZM34.6788 22.0479V19.9964H34.2801V22.0479H34.6788ZM32.4279 22.2473H34.4795V21.8486H32.4279V22.2473ZM32.6273 24.0995V22.0479H32.2286V24.0995H32.6273ZM30.3764 24.2988H32.4279V23.9002H30.3764V24.2988ZM30.177 22.0479V24.0995H30.5757V22.0479H30.177ZM28.3248 22.2473H30.3764V21.8486H28.3248V22.2473ZM28.1255 19.9964V22.0479H28.5242V19.9964H28.1255ZM30.3764 19.7971H28.3248V20.1957H30.3764V19.7971ZM30.177 17.9448V19.9964H30.5757V17.9448H30.177ZM32.4279 17.7455H30.3764V18.1442H32.4279V17.7455ZM27.2993 13.0151H29.3508V12.6165H27.2993V13.0151ZM24.4213 15.8931C24.4213 14.3063 25.7125 13.0151 27.2993 13.0151V12.6165C25.4923 12.6165 24.0226 14.0861 24.0226 15.8931H24.4213ZM24.4213 19.9962V15.8931H24.0226V19.9962H24.4213ZM20.1188 20.1955H24.2219V19.7969H20.1188V20.1955ZM19.5346 20.4377C19.6896 20.2827 19.8994 20.1955 20.1188 20.1955V19.7969C19.7934 19.7969 19.4823 19.9262 19.2527 20.1558L19.5346 20.4377ZM16.1567 23.8156L19.5346 20.4377L19.2527 20.1558L15.8748 23.5337L16.1567 23.8156ZM9.41961 17.3604L15.8748 23.8156L16.1567 23.5337L9.70151 17.0785L9.41961 17.3604ZM8.25094 17.3604C8.57379 17.0375 9.09676 17.0375 9.41961 17.3604L9.70151 17.0785C9.22297 16.5999 8.44757 16.5999 7.96903 17.0785L8.25094 17.3604ZM5.47431 20.1372L8.25095 17.3604L7.96903 17.0785L5.19239 19.8553L5.47431 20.1372ZM0.62915 20.1955H5.33335V19.7969H0.62915V20.1955ZM0.82849 22.0478V19.9962H0.429811V22.0478H0.82849ZM5.75802 21.8484H0.62915V22.2471H5.75802V21.8484ZM6.34229 21.6063C6.18725 21.7613 5.9775 21.8484 5.75802 21.8484V22.2471C6.08348 22.2471 6.39457 22.1178 6.62419 21.8882L6.34229 21.6063ZM8.69439 19.2543L6.34229 21.6062L6.62419 21.8882L8.97629 19.5362L8.69439 19.2543ZM15.4315 25.7095L8.97629 19.2543L8.69438 19.5362L15.1496 25.9914L15.4315 25.7095ZM16.0158 25.9516C15.804 25.9516 15.5931 25.871 15.4315 25.7095L15.1496 25.9914C15.3888 26.2306 15.7025 26.3503 16.0158 26.3503V25.9516ZM16.6 25.7095C16.4386 25.871 16.2275 25.9516 16.0158 25.9516V26.3503C16.3289 26.3503 16.6428 26.2307 16.882 25.9913L16.6 25.7095ZM20.4027 21.9068L16.6 25.7095L16.8819 25.9914L20.6846 22.1887L20.4027 21.9068ZM25.2477 21.8484H20.5436V22.2471H25.2477V21.8484ZM26.0741 21.022C26.0741 21.4789 25.7046 21.8484 25.2477 21.8484V22.2471C25.9248 22.2471 26.4728 21.6991 26.4728 21.022H26.0741ZM26.0741 15.8931V21.022H26.4728V15.8931H26.0741ZM27.2993 14.668C26.6232 14.668 26.0741 15.2171 26.0741 15.8931H26.4728C26.4728 15.4372 26.8434 15.0667 27.2993 15.0667V14.668ZM29.3508 14.668H27.2993V15.0667H29.3508V14.668ZM30.5759 15.8931C30.5759 15.2171 30.0269 14.668 29.3508 14.668V15.0667C29.8067 15.0667 30.1772 15.4372 30.1772 15.8931H30.5759ZM32.4281 15.6938H30.3766V16.0925H32.4281V15.6938ZM29.3508 13.0151C30.9376 13.0151 32.2288 14.3063 32.2288 15.8931H32.6275C32.6275 14.0861 31.1578 12.6165 29.3508 12.6165V13.0151ZM58.0725 19.797C57.747 19.797 57.436 19.9263 57.2063 20.156L57.4882 20.4379C57.6433 20.2828 57.853 20.1957 58.0725 20.1957V19.797ZM62.1756 19.797H58.0725V20.1957H62.1756V19.797ZM62.3749 22.0479V19.9964H61.9763V22.0479H62.3749ZM58.4973 22.2473H62.1756V21.8486H58.4973V22.2473ZM55.8615 24.9658L58.6383 22.1889L58.3563 21.907L55.5796 24.6839L55.8615 24.9658ZM54.129 24.9658C54.6075 25.4443 55.3829 25.4443 55.8615 24.9658L55.5796 24.6839C55.2567 25.0067 54.7338 25.0067 54.4109 24.6839L54.129 24.9658ZM49.7254 20.5621L54.129 24.9658L54.4109 24.6839L50.0073 20.2802L49.7254 20.5621ZM48.6809 21.8883L50.0073 20.5621L49.7254 20.2802L48.399 21.6064L48.6809 21.8883ZM47.8148 22.2473C48.1402 22.2473 48.4513 22.1179 48.6809 21.8883L48.399 21.6064C48.244 21.7614 48.0342 21.8486 47.8148 21.8486V22.2473ZM46.7639 22.2473H47.8148V21.8486H46.7639V22.2473ZM40.8263 35.8976C44.5548 32.1691 46.7112 27.288 46.963 22.0575L46.5647 22.0383C46.3177 27.1697 44.2029 31.9572 40.5444 35.6157L40.8263 35.8976ZM37.698 39.0259L40.8263 35.8976L40.5444 35.6157L37.4161 38.744L37.698 39.0259ZM37.7564 40.5118V38.885H37.3577V40.5118H37.7564ZM31.4024 46.8658C34.9064 46.8658 37.7564 44.0158 37.7564 40.5118H37.3577C37.3577 43.7956 34.6862 46.4671 31.4024 46.4671V46.8658ZM25.0484 40.5118C25.0484 44.0158 27.8984 46.8658 31.4024 46.8658V46.4671C28.1186 46.4671 25.4471 43.7956 25.4471 40.5118H25.0484ZM25.0484 38.4603V40.5118H25.4471V38.4603H25.0484ZM27.2993 38.2609H25.2477V38.6596H27.2993V38.2609ZM27.4986 40.5118V38.4603H27.1V40.5118H27.4986ZM31.4024 44.4156C29.2496 44.4156 27.4986 42.6646 27.4986 40.5118H27.1C27.1 42.8848 29.0294 44.8143 31.4024 44.8143V44.4156ZM35.3061 40.5118C35.3061 42.6646 33.5552 44.4156 31.4024 44.4156V44.8143C33.7753 44.8143 35.7048 42.8848 35.7048 40.5118H35.3061ZM35.3061 38.4603V40.5118H35.7048V38.4603H35.3061ZM35.6651 37.5941C35.4355 37.8237 35.3061 38.1348 35.3061 38.4603H35.7048C35.7048 38.2408 35.792 38.0311 35.947 37.876L35.6651 37.5941ZM39.094 34.1652L35.6651 37.5941L35.947 37.876L39.3759 34.4471L39.094 34.1652ZM44.5381 21.0221C44.5381 25.987 42.6048 30.6544 39.094 34.1652L39.3759 34.4471C42.9614 30.8616 44.9368 26.0927 44.9368 21.0221H44.5381ZM45.7632 19.797C45.0861 19.797 44.5381 20.345 44.5381 21.0221H44.9368C44.9368 20.5652 45.3063 20.1957 45.7632 20.1957V19.797ZM47.3901 19.797H45.7632V20.1957H47.3901V19.797ZM49 18.1044L47.2491 19.8554L47.5311 20.1373L49.2819 18.3863L49 18.1044ZM50.7325 18.1044C50.254 17.6259 49.4785 17.6259 49 18.1044L49.2819 18.3863C49.6048 18.0635 50.1277 18.0635 50.4506 18.3863L50.7325 18.1044ZM55.1361 22.5081L50.7325 18.1044L50.4506 18.3863L54.8542 22.79L55.1361 22.5081ZM57.2063 20.156L54.8542 22.5081L55.1361 22.79L57.4882 20.4379L57.2063 20.156Z" fill="white" mask="url(#path-1-inside-1)"/>
</svg>
