<svg width="50" height="49" viewBox="0 0 50 49" fill="none" xmlns="http://www.w3.org/2000/svg">
<path fill-rule="evenodd" clip-rule="evenodd" d="M49.6196 17.5311C49.6196 14.9054 47.4834 12.7696 44.8577 12.7696C42.232 12.7696 40.0962 14.9054 40.0962 17.5311C40.0962 19.8862 41.8155 21.8421 44.0643 22.2213V35.388C44.0643 41.733 38.9014 46.8959 32.5565 46.8959C26.2115 46.8959 21.0491 41.733 21.0491 35.388V31.2033C27.459 28.7501 33.7472 18.7595 33.7472 15.0334C33.7472 11.0108 30.4748 7.73845 26.4522 7.73845C23.8946 7.73845 21.5827 9.05994 20.2725 11.1566C19.4251 9.81559 18.1495 8.75795 16.6491 8.19756C16.638 8.19328 16.6266 8.19249 16.6153 8.1917C16.6062 8.19108 16.5971 8.19045 16.5882 8.18802C16.2227 7.25208 15.6941 6.40015 15.0361 5.66312L15.5052 5.17357L15.7259 5.39382C15.8812 5.54913 16.0842 5.62679 16.2872 5.62679C16.4902 5.62679 16.6931 5.54913 16.848 5.39428C17.1582 5.08411 17.1582 4.58186 16.848 4.27215L15.2608 2.685C14.9511 2.37483 14.4484 2.37483 14.1387 2.685C13.829 2.99471 13.829 3.49696 14.1387 3.80713L14.3835 4.05144L13.8726 4.58458C12.7491 3.72493 11.4049 3.14547 9.9381 2.94702V1.65868H10.7315C11.1701 1.65868 11.5253 1.30356 11.5253 0.864881C11.5253 0.426201 11.1701 0.0715332 10.7315 0.0715332H7.55715C7.11847 0.0715332 6.76335 0.426201 6.76335 0.864881C6.76335 1.30356 7.11847 1.65868 7.55715 1.65868H8.35095V2.88572C6.59351 2.9829 4.98183 3.62094 3.67806 4.64225L3.11177 4.05144L3.35654 3.80713C3.66625 3.49696 3.66625 2.99471 3.35654 2.685C3.04637 2.37483 2.54412 2.37483 2.23441 2.685L0.646803 4.27215C0.337093 4.58186 0.337093 5.08411 0.646803 5.39428C0.802112 5.54913 1.0051 5.62679 1.2081 5.62679C1.41109 5.62679 1.61408 5.54913 1.76939 5.39428L1.98964 5.17357L2.52731 5.73441C1.2467 7.20213 0.464246 9.11534 0.464246 11.2116C0.464246 15.6397 3.931 19.2636 8.29237 19.5356C10.5721 23.8279 15.0379 29.0285 19.4615 31.1311V35.388C19.4615 42.6081 25.3364 48.483 32.5565 48.483C39.777 48.483 45.6515 42.6081 45.6515 35.388V22.2213C47.9003 21.8421 49.6196 19.8862 49.6196 17.5311ZM2.0514 11.2116C2.0514 7.48278 5.08492 4.44925 8.81416 4.44925C12.5429 4.44925 15.5765 7.48278 15.5765 11.2116C15.5765 14.9412 12.5429 17.9743 8.81416 17.9743C5.08492 17.9743 2.0514 14.9412 2.0514 11.2116ZM10.0612 19.4584C14.0742 18.853 17.1641 15.3913 17.1641 11.2116C17.1641 10.8632 17.1355 10.5217 17.0937 10.1843C18.2253 10.8891 19.1036 11.9786 19.5223 13.2574C19.629 13.5839 19.9328 13.8041 20.2762 13.8041C20.6199 13.8041 20.9233 13.583 21.0304 13.2574C21.8002 10.9059 23.9795 9.32605 26.4526 9.32605C29.5997 9.32605 32.16 11.8859 32.16 15.0334C32.16 18.265 26.0194 27.7452 20.3134 29.786C16.4198 28.0158 12.3045 23.3584 10.0612 19.4584ZM44.8577 20.7059C43.107 20.7059 41.6834 19.2822 41.6834 17.5311C41.6834 15.7805 43.107 14.3568 44.8577 14.3568C46.6088 14.3568 48.0324 15.7805 48.0324 17.5311C48.0324 19.2822 46.6088 20.7059 44.8577 20.7059ZM44.8577 15.278C43.6157 15.278 42.6044 16.2893 42.6044 17.5314C42.6044 18.7738 43.6157 19.7852 44.8577 19.7852C46.1002 19.7852 47.1116 18.7738 47.1116 17.5314C47.1116 16.2893 46.1002 15.278 44.8577 15.278ZM44.8577 18.198C44.4904 18.198 44.1915 17.8987 44.1915 17.5314C44.1915 17.1644 44.4908 16.8652 44.8577 16.8652C45.2251 16.8652 45.5244 17.1644 45.5244 17.5314C45.5244 17.8987 45.2256 18.198 44.8577 18.198ZM29.0224 15.1502C29.0224 13.8174 27.9375 12.732 26.6042 12.732C26.1655 12.732 25.8104 12.3774 25.8104 11.9387C25.8104 11.5 26.1655 11.1449 26.6042 11.1449C28.813 11.1449 30.6095 12.9414 30.6095 15.1502C30.6095 15.5889 30.2548 15.944 29.8162 15.944C29.3775 15.944 29.0224 15.5889 29.0224 15.1502ZM7.55718 30.2294C6.24432 30.2294 5.17623 31.2974 5.17623 32.6103C5.17623 33.9232 6.24432 34.9913 7.55718 34.9913C8.87004 34.9913 9.93813 33.9232 9.93813 32.6103C9.93813 31.2974 8.87004 30.2294 7.55718 30.2294ZM7.55718 33.4041C7.11941 33.4041 6.76338 33.0485 6.76338 32.6103C6.76338 32.1725 7.11941 31.817 7.55718 31.817C7.99495 31.817 8.35098 32.1725 8.35098 32.6103C8.35098 33.0485 7.99541 33.4041 7.55718 33.4041ZM39.3023 4.8333C39.3023 6.14616 38.2342 7.21425 36.9213 7.21425C35.6085 7.21425 34.5404 6.14616 34.5404 4.8333C34.5404 3.52044 35.6085 2.45235 36.9213 2.45235C38.2342 2.45235 39.3023 3.52044 39.3023 4.8333ZM37.7151 4.8333C37.7151 4.39553 37.3591 4.03995 36.9213 4.03995C36.4835 4.03995 36.128 4.39553 36.128 4.8333C36.128 5.27153 36.4835 5.6271 36.9213 5.6271C37.3591 5.6271 37.7151 5.27153 37.7151 4.8333ZM4.35466 14.7076H7.16928V13.3566H4.91759V12.0056H6.60636C6.91723 12.0056 7.16928 11.7031 7.16928 11.3301V8.62806C7.16928 8.25501 6.91723 7.95255 6.60636 7.95255H4.35466C4.04379 7.95255 3.79174 8.25501 3.79174 8.62806V9.97908H4.91759V9.30357H6.04343V10.6546H4.35466C4.04379 10.6546 3.79174 10.9571 3.79174 11.3301V14.0321C3.79174 14.4052 4.04379 14.7076 4.35466 14.7076ZM11.2974 12.0056H9.04568C8.63119 12.0056 8.29512 11.7031 8.29512 11.3301V7.95255H9.79625V10.6546H11.2974V7.95255H12.7985V14.7076H11.2974V12.0056Z" fill="#1F4D7F"/>
</svg>
