<svg width="56" height="49" viewBox="0 0 56 49" fill="none" xmlns="http://www.w3.org/2000/svg">
<path fill-rule="evenodd" clip-rule="evenodd" d="M0.0893316 45.1797C1.78043 32.5501 3.37774 20.6213 11.2174 15.4259C12.2559 14.7375 13.4683 14.3736 14.7236 14.3736C17.9524 14.3736 22.9446 16.8251 23.2255 20.2118L23.4042 22.3698L23.4243 22.3408C24.0056 21.4981 24.438 20.8714 24.438 19.8434V1.63313C24.438 1.18562 24.8006 0.823242 25.2479 0.823242C25.695 0.823242 26.0575 1.18562 26.0575 1.63313V19.8434C26.0575 20.7341 25.8116 21.6034 25.3466 22.358C24.7798 23.2783 23.9308 24.4084 23.3787 25.0404C22.1341 26.4647 20.9629 27.3547 19.7731 28.0224C19.7462 28.0376 19.72 28.0568 19.6938 28.076C19.665 28.0971 19.6362 28.1182 19.6063 28.1341C19.5736 28.1571 19.3956 28.2428 19.3316 28.259C18.1844 28.8323 16.7107 29.2556 15.4429 29.2556C15.3592 29.2556 15.2919 29.2165 15.2237 29.1769C15.1948 29.16 15.1657 29.1431 15.135 29.129C15.1036 29.1148 15.0696 29.1057 15.0359 29.0966C14.977 29.0808 14.9189 29.0653 14.8766 29.0229C14.3664 28.5222 14.7117 27.6458 15.4326 27.6363C15.7652 27.6317 16.0926 27.5703 16.4202 27.5089C16.4746 27.4987 16.529 27.4885 16.5834 27.4785C15.8418 26.9599 15.0903 26.123 14.7197 24.7522C14.603 24.3202 14.8584 23.876 15.2899 23.7588C15.7219 23.6426 16.1662 23.8978 16.2831 24.3293C16.8185 26.31 18.4182 26.63 18.8547 26.6831C20.027 26.0519 21.0549 25.1885 21.9329 24.2223L21.6109 20.3453C21.416 17.9852 17.2419 15.9929 14.7236 15.9929C13.7877 15.9929 12.8843 16.2637 12.1122 16.7758C4.88602 21.5651 3.33582 33.14 1.69486 45.3945L1.66784 45.5937C1.61814 45.9656 1.72684 46.3256 1.97361 46.6071C2.22103 46.8904 2.56374 47.046 2.9393 47.046H10.1199C10.5676 47.046 10.93 47.4086 10.93 47.8557C10.93 48.303 10.5676 48.6656 10.1199 48.6656H2.9393C2.10196 48.6656 1.30612 48.3041 0.754878 47.674C0.203858 47.0441 -0.0480995 46.2078 0.0623208 45.3787L0.0893316 45.1797ZM13.6831 47.046H16.5752C18.4158 47.046 20.1166 46.3001 21.3634 44.9454C22.5562 43.6495 23.1853 42.0142 23.0597 39.9847L22.5558 32.0639C22.3551 32.1846 22.1501 32.2857 21.9452 32.3867L21.9452 32.3867C21.8511 32.4331 21.757 32.4795 21.6634 32.5278C21.0047 32.8666 20.3137 33.2212 19.1877 33.5547C19.1116 35.155 18.4002 37.5175 16.0041 38.0704C14.9426 38.315 14.6099 36.73 15.6397 36.4921C17.0045 36.1775 17.4078 34.8522 17.5247 33.9274C16.4239 34.1074 15.5363 34.1135 15.4788 34.1139L15.476 34.1139C15.0282 34.1139 14.6658 33.7515 14.6658 33.3044C14.6658 32.8573 15.0282 32.495 15.476 32.495L15.4984 32.4943C19.1645 32.4453 22.6379 30.558 25.2696 27.7782C26.5726 26.4022 28.7812 26.4022 30.0845 27.7782C34.4822 32.4238 38.9772 32.481 39.7623 32.4909C39.8268 32.4918 39.8663 32.4923 39.8786 32.495C40.3256 32.495 40.6882 32.8573 40.6882 33.3046C40.6882 33.7515 40.3256 34.1145 39.8786 34.1145C39.8762 34.1144 39.8672 34.1143 39.8518 34.1142C39.6999 34.1131 38.9287 34.1076 37.889 33.9427C38.0081 34.8661 38.415 36.1795 39.7718 36.4921C40.8017 36.73 40.4698 38.3152 39.4077 38.0704C37.0193 37.5196 36.3062 35.1714 36.2256 33.5715C35.5568 33.3766 34.9001 33.1242 34.253 32.8243C34.2422 32.82 32.8754 32.1112 32.6902 31.9975C32.3791 36.8699 32.2576 38.7881 32.2104 39.5338C32.185 39.9349 32.1811 39.9968 32.1807 39.9968C32.1806 39.9968 32.1807 39.9947 32.1807 39.9923C32.1809 39.9855 32.1811 39.9756 32.179 40.0001C31.8663 43.7755 34.8327 47.0453 38.6652 47.0453H41.2388C41.6861 47.0453 42.0489 47.4086 42.0489 47.8552C42.0489 48.303 41.6861 48.6653 41.2388 48.6653H38.6652C33.9219 48.6653 30.1774 44.607 30.5648 39.8743L31.1381 30.8925C30.3757 30.2976 29.627 29.6508 28.9087 28.8915C28.5865 28.5514 28.1492 28.3643 27.6768 28.3643C26.984 28.3643 26.7357 28.6107 26.1345 29.2074L26.1345 29.2074C25.7178 29.6211 25.1315 30.203 24.1101 30.9878L24.6758 39.8743C24.8606 42.1298 24.0876 44.3775 22.5547 46.0423C21.0205 47.7094 18.8411 48.6653 16.5752 48.6653H13.6831C13.2358 48.6653 12.8734 48.303 12.8734 47.8552C12.8734 47.4086 13.2358 47.046 13.6831 47.046ZM40.5159 15.9929C41.4527 15.9929 42.3553 16.2637 43.1276 16.7758C50.3543 21.5649 51.9045 33.1398 53.5455 45.3942C53.545 45.4081 53.5491 45.4335 53.5547 45.4686C53.5859 45.6629 53.6645 46.1528 53.2661 46.608C53.0191 46.8904 52.6758 47.046 52.3011 47.046H45.8816C45.4343 47.046 45.0719 47.4086 45.0719 47.8557C45.0719 48.303 45.4343 48.6656 45.8816 48.6656H52.3011C54.0546 48.6656 55.4101 47.118 55.1774 45.3793C55.1029 44.8235 55.0287 44.2602 54.9536 43.6909C53.57 33.1983 51.9164 20.6576 44.023 15.4259C42.9845 14.7372 41.772 14.3736 40.5164 14.3736C37.2876 14.3736 32.2956 16.8251 32.0149 20.2118L31.8548 22.1486C31.8226 22.101 31.7779 22.0443 31.7254 21.9777C31.4381 21.6131 30.9159 20.9506 30.9159 19.8468V1.63313C30.9159 1.18562 30.5535 0.823242 30.106 0.823242C29.6591 0.823242 29.2965 1.18562 29.2965 1.63313V19.8468C29.2965 20.7362 29.5416 21.6049 30.0055 22.3588C31.3141 24.4845 33.3358 26.8761 35.7878 28.1752C36.7915 28.707 38.7153 29.2396 39.8992 29.2556C40.0246 29.2576 40.1146 29.2032 40.2128 29.1439C40.2351 29.1304 40.2578 29.1167 40.2815 29.1033C40.3075 29.0887 40.337 29.081 40.3663 29.0734C40.4071 29.0628 40.4474 29.0523 40.4768 29.0233C40.9896 28.5209 40.6387 27.6458 39.9213 27.6363C39.6353 27.6323 39.3534 27.5795 39.0713 27.5267C38.9891 27.5113 38.9069 27.496 38.8246 27.4818C39.5675 26.9627 40.3206 26.1252 40.692 24.7522C40.8089 24.3202 40.5533 23.876 40.1216 23.7588C39.6898 23.6428 39.2453 23.8978 39.1287 24.3293C38.5662 26.4085 36.8008 26.6678 36.476 26.6972C36.343 26.6252 36.2126 26.5316 36.0821 26.4381C36.0012 26.38 35.9202 26.322 35.8388 26.2691C34.8746 25.6432 34.8152 25.5827 34.5396 25.302C34.4516 25.2124 34.3416 25.1004 34.1732 24.9404C34.1058 24.8764 34.0384 24.8134 33.9709 24.7504C33.7516 24.5456 33.5323 24.3408 33.3175 24.1007L33.6286 20.3453C33.8244 17.9852 37.9981 15.9929 40.5159 15.9929Z" fill="#1F4D7F"/>
</svg>
