<svg width="49" height="49" viewBox="0 0 49 49" fill="none" xmlns="http://www.w3.org/2000/svg">
<path fill-rule="evenodd" clip-rule="evenodd" d="M34.6911 0.574585C26.9665 0.574585 20.6818 6.85932 20.6818 14.5839C20.6818 20.3767 24.2168 25.3609 29.2431 27.4904V31.7064H40.1392V27.4904C45.1654 25.3609 48.7004 20.3767 48.7004 14.5839C48.7004 6.85932 42.4157 0.574585 34.6911 0.574585ZM30.7996 30.1498V28.032C32.0371 28.3908 33.34 28.5932 34.6911 28.5932C36.0422 28.5932 37.3451 28.3908 38.5826 28.032V30.1498H30.7996ZM34.6911 27.0366C27.825 27.0366 22.2384 21.45 22.2384 14.5839C22.2384 7.71778 27.825 2.13117 34.6911 2.13117C41.5572 2.13117 47.1438 7.71778 47.1438 14.5839C47.1438 21.45 41.5572 27.0366 34.6911 27.0366ZM34.691 5.24444C36.9131 5.24444 39.069 6.04375 40.7625 7.49683L41.7759 6.31537C39.8005 4.62103 37.2851 3.68785 34.691 3.68785C28.6826 3.68785 23.7949 8.57554 23.7949 14.584C23.7949 17.1773 24.7281 19.6927 26.4217 21.6688L27.6039 20.6547C26.1508 18.9619 25.3515 16.8052 25.3515 14.584C25.3515 9.434 29.5411 5.24444 34.691 5.24444ZM41.7781 8.51328L42.9604 7.49916C44.6539 9.47525 45.5871 11.9907 45.5871 14.584C45.5871 20.5924 40.6994 25.4801 34.691 25.4801C32.0969 25.4801 29.5815 24.5469 27.6061 22.8526L28.6195 21.6711C30.3131 23.1242 32.4689 23.9235 34.691 23.9235C39.8409 23.9235 44.0305 19.734 44.0305 14.584C44.0305 12.3627 43.2312 10.2061 41.7781 8.51328ZM37.0258 20.8103V16.9189H40.9172V12.2491H37.0258V8.35763H32.356V12.2491H28.4645V16.9189H32.356V20.8103H37.0258ZM30.0211 15.3623V13.8057H33.9126V9.91422H35.4692V13.8057H39.3606V15.3623H35.4692V19.2538H33.9126V15.3623H30.0211ZM34.6908 47.2722C35.9781 47.2722 37.0257 46.2246 37.0257 44.9373V33.2629H38.5823V44.9373C38.5823 47.0831 36.8366 48.8288 34.6908 48.8288C32.545 48.8288 30.7993 47.0831 30.7993 44.9373V33.2629H32.3559V44.9373C32.3559 46.2246 33.4035 47.2722 34.6908 47.2722ZM28.3991 28.7519L26.9733 28.1285C25.6097 31.2471 22.5284 33.2629 19.125 33.2629C14.4046 33.2629 10.5637 29.422 10.5637 24.7016C10.5637 19.9813 14.4046 16.1404 19.125 16.1404V14.5838C7.17191 14.5838 0.840477 23.8751 0.576635 24.2697L0.288666 24.7016L0.576635 25.1336C0.840477 25.5282 7.17191 34.8195 19.125 34.8195C22.2039 34.8195 25.1902 34.1875 28.0014 32.9422L27.3702 31.5195C26.9499 31.7055 26.5234 31.8721 26.0946 32.0285C27.055 31.1156 27.8481 30.0127 28.3991 28.7519ZM2.18926 24.7009C3.19949 23.3887 6.60686 19.431 12.1499 17.3911C10.2182 19.2349 9.00712 21.8266 9.00712 24.7016C9.00712 27.572 10.2143 30.1614 12.1413 32.0052C6.61309 29.9621 3.20105 26.0107 2.18926 24.7009ZM19.1245 28.5933C16.9788 28.5933 15.2331 26.8476 15.2331 24.7018C15.2331 22.556 16.9788 20.8103 19.1245 20.8103C21.2703 20.8103 23.016 22.556 23.016 24.7018C23.016 26.8476 21.2703 28.5933 19.1245 28.5933ZM19.1245 27.0367C20.4118 27.0367 21.4594 25.9891 21.4594 24.7018C21.4594 23.4145 20.4118 22.3669 19.1245 22.3669C17.8372 22.3669 16.7897 23.4145 16.7897 24.7018C16.7897 25.9891 17.8372 27.0367 19.1245 27.0367Z" fill="#1F4D7F"/>
</svg>
