<svg width="52" height="52" viewBox="0 0 52 52" fill="none" xmlns="http://www.w3.org/2000/svg">
<path d="M11.1447 22.2857C14.2173 22.2857 16.7161 19.7869 16.7161 16.7143C16.7161 13.6416 14.2173 11.1428 11.1447 11.1428C8.07203 11.1428 5.57324 13.6416 5.57324 16.7143C5.57324 19.7869 8.07203 22.2857 11.1447 22.2857ZM11.1447 13C13.1931 13 14.859 14.6658 14.859 16.7143C14.859 18.7627 13.1931 20.4285 11.1447 20.4285C9.09624 20.4285 7.43038 18.7627 7.43038 16.7143C7.43038 14.6658 9.09624 13 11.1447 13Z" fill="#1F4D7F"/>
<path d="M40.8581 22.2857C43.9307 22.2857 46.4295 19.7869 46.4295 16.7143C46.4295 13.6416 43.9307 11.1428 40.8581 11.1428C37.7854 11.1428 35.2866 13.6416 35.2866 16.7143C35.2866 19.7869 37.7854 22.2857 40.8581 22.2857ZM40.8581 13C42.9065 13 44.5723 14.6658 44.5723 16.7143C44.5723 18.7627 42.9065 20.4285 40.8581 20.4285C38.8096 20.4285 37.1438 18.7627 37.1438 16.7143C37.1438 14.6658 38.8096 13 40.8581 13Z" fill="#1F4D7F"/>
<path d="M50.1429 24.1428V36.2143C50.1429 37.7501 48.893 39 47.3571 39V28.7857C47.3571 26.2256 45.2744 24.1428 42.7143 24.1428H38.0714C37.5589 24.1428 37.1429 24.5588 37.1429 25.0714V28.7857V29.7143V30.6428H29.7143C29.2017 30.6428 28.7857 31.0588 28.7857 31.5714V34.3571H23.2143V31.5714C23.2143 31.0588 22.7983 30.6428 22.2857 30.6428H14.8571V29.7143V28.7857V25.0714C14.8571 24.5588 14.4411 24.1428 13.9286 24.1428H9.28571C6.72564 24.1428 4.64286 26.2256 4.64286 28.7857V39C3.107 39 1.85714 37.7501 1.85714 36.2143V24.1428H0V36.2143C0 38.1132 1.14864 39.7447 2.78571 40.4634V52H4.64286V40.8571H5.57143H6.5H13.9286V51.0714C13.9286 51.584 14.3446 52 14.8571 52H17.6429H18.5714H19.5V51.0714V37.1428V36.2143H22.2857H29.7143H32.5V37.1428V51.0714V52H33.4286H34.3571H37.1429C37.6554 52 38.0714 51.584 38.0714 51.0714V40.8571H45.5H46.4286H47.3571V52H49.2143V40.4634C50.8514 39.7447 52 38.1132 52 36.2143V24.1428H50.1429ZM18.5714 34.3571H16.7143H11.1429V28.7857H9.28571V35.2857C9.28571 35.7983 9.70171 36.2143 10.2143 36.2143H16.7143C17.2259 36.2143 17.6429 36.6312 17.6429 37.1428V50.1428H15.7857V39.9285C15.7857 39.416 15.3697 39 14.8571 39H6.5V28.7857C6.5 27.2498 7.74986 26 9.28571 26H13V28.7857V29.7143V31.5714C13 32.084 13.416 32.5 13.9286 32.5H21.3571V34.3571H18.5714ZM37.1429 39C36.6303 39 36.2143 39.416 36.2143 39.9285V50.1428H34.3571V37.1428C34.3571 36.6312 34.7741 36.2143 35.2857 36.2143H41.7857C42.2983 36.2143 42.7143 35.7983 42.7143 35.2857V28.7857H40.8571V34.3571H35.2857H33.4286H30.6429V32.5H38.0714C38.584 32.5 39 32.084 39 31.5714V29.7143V28.7857V26H42.7143C44.2501 26 45.5 27.2498 45.5 28.7857V39H37.1429Z" fill="#1F4D7F"/>
<path d="M17.6456 9.28571V12.0714C17.6456 12.4716 17.9009 12.8254 18.2807 12.9526C18.3773 12.9842 18.4766 13 18.5742 13C18.8611 13 19.1378 12.8663 19.317 12.6286L21.8242 9.28571H28.7884C30.3243 9.28571 31.5742 8.03586 31.5742 6.5V2.78571C31.5742 1.24986 30.3243 0 28.7884 0H17.6456C16.1097 0 14.8599 1.24986 14.8599 2.78571V6.5C14.8599 8.03586 16.1097 9.28571 17.6456 9.28571ZM16.717 2.78571C16.717 2.27407 17.1339 1.85714 17.6456 1.85714H28.7884C29.3001 1.85714 29.717 2.27407 29.717 2.78571V6.5C29.717 7.01164 29.3001 7.42857 28.7884 7.42857H21.3599C21.0674 7.42857 20.7925 7.566 20.617 7.8L19.5027 9.28571V8.35714C19.5027 7.84457 19.0867 7.42857 18.5742 7.42857H17.6456C17.1339 7.42857 16.717 7.01164 16.717 6.5V2.78571Z" fill="#1F4D7F"/>
<path d="M27.859 3.71411H18.5732V5.57125H27.859V3.71411Z" fill="#1F4D7F"/>
<path d="M30.6447 23.2141H25.0732V25.0713H30.6447V23.2141Z" fill="#1F4D7F"/>
<path d="M24.1456 19.5C22.6097 19.5 21.3599 20.7499 21.3599 22.2857V26C21.3599 27.5359 22.6097 28.7857 24.1456 28.7857H31.5742C33.11 28.7857 34.3599 27.5359 34.3599 26V25.3528L36.061 22.8011C36.2514 22.516 36.269 22.1501 36.1074 21.8484C35.9459 21.5456 35.6311 21.3571 35.2884 21.3571H34.2011C33.8176 20.2763 32.785 19.5 31.5742 19.5H24.1456ZM32.5027 22.2857C32.5027 22.7983 32.9187 23.2143 33.4313 23.2143H33.5529L32.6587 24.5561C32.5575 24.7084 32.5027 24.8885 32.5027 25.0714V26C32.5027 26.5117 32.0858 26.9286 31.5742 26.9286H24.1456C23.6339 26.9286 23.217 26.5117 23.217 26V22.2857C23.217 21.7741 23.6339 21.3571 24.1456 21.3571H31.5742C32.0858 21.3571 32.5027 21.7741 32.5027 22.2857Z" fill="#1F4D7F"/>
<path d="M23.217 14.8572H21.3599V16.7143H23.217V14.8572Z" fill="#1F4D7F"/>
<path d="M26.9304 14.8572H25.0732V16.7143H26.9304V14.8572Z" fill="#1F4D7F"/>
<path d="M30.6438 14.8572H28.7866V16.7143H30.6438V14.8572Z" fill="#1F4D7F"/>
</svg>
