<svg width="52" height="52" viewBox="0 0 52 52" fill="none" xmlns="http://www.w3.org/2000/svg">
<path d="M48.0773 18.6875C48.0244 18.6875 47.9749 18.6997 47.9229 18.7029C47.9253 18.6509 47.9375 18.6006 47.9375 18.5486C47.9375 16.8326 46.5416 15.4375 44.8273 15.4375C44.7744 15.4375 44.7249 15.4497 44.6729 15.4529C44.6753 15.4009 44.6875 15.3506 44.6875 15.2986C44.6875 13.8872 43.7369 12.7067 42.4474 12.3272L48.6517 6.123C49.2391 5.53475 49.5625 4.75394 49.5625 3.92356C49.5625 2.20756 48.1666 0.8125 46.4523 0.8125C45.6211 0.8125 44.8403 1.13587 44.2528 1.72412L41.6699 4.30706C41.3514 4.15431 41.0004 4.0625 40.625 4.0625H31.6875V0.8125H6.5C3.36456 0.8125 0.8125 3.36375 0.8125 6.5C0.8125 9.63625 3.36456 12.1875 6.5 12.1875H31.6875V8.9375H37.0386L32.0507 13.9254C31.2431 13.3339 30.2567 13 29.25 13C28.0036 13 26.7832 13.5054 25.9017 14.3869L23.036 17.2526C21.8335 18.4551 21.0015 19.9696 20.6318 21.6304L19.5707 26.4054L16.25 29.7261L14.625 28.1011L5.35112 37.375L19.5 51.5239L28.7739 42.25L27.1489 40.625L29.6506 38.1233L35.1219 37.0289C36.8574 36.6819 38.4361 35.8369 39.6882 34.5849L41.8722 32.4009L42.8244 31.4486L50.2767 23.9964C50.8641 23.4097 51.1875 22.6289 51.1875 21.7986C51.1875 20.0826 49.7916 18.6875 48.0773 18.6875ZM44.8273 17.0625C45.6463 17.0625 46.3125 17.7288 46.3125 18.5486C46.3125 18.9451 46.1581 19.3188 45.8778 19.5991L37.4733 28.0028C37.1971 28.2791 36.8144 28.4375 36.4227 28.4375C35.6037 28.4375 34.9375 27.7713 34.9375 26.9523C34.9375 26.5549 35.0919 26.182 35.3722 25.9017L36.1091 25.1656C37.6464 25.0559 38.8684 23.8339 38.9781 22.2966L43.7767 17.498C44.0538 17.2209 44.4356 17.0625 44.8273 17.0625ZM32.097 22.6826L33.6903 24.2759C33.8634 24.4489 34.0568 24.5911 34.2591 24.7171L34.2233 24.7528C33.9462 25.0291 33.5644 25.1875 33.1727 25.1875C32.3537 25.1875 31.6875 24.5212 31.6875 23.7014C31.6875 23.3188 31.8346 22.9596 32.097 22.6826ZM41.5773 13.8125C42.3963 13.8125 43.0625 14.4788 43.0625 15.2986C43.0625 15.6951 42.9081 16.0688 42.6278 16.3491L38.5296 20.4466C38.4036 20.2434 38.2614 20.0501 38.0892 19.877L36.4926 18.2812L40.5267 14.2472C40.8038 13.9709 41.1856 13.8125 41.5773 13.8125ZM2.4375 6.5C2.4375 4.25994 4.25994 2.4375 6.5 2.4375H26.8125V10.5625H6.5C4.25994 10.5625 2.4375 8.74006 2.4375 6.5ZM30.0625 10.5625H28.4375V2.4375H30.0625V10.5625ZM31.6875 5.6875H40.625C41.0735 5.6875 41.4375 6.05231 41.4375 6.5C41.4375 6.94769 41.0735 7.3125 40.625 7.3125H31.6875V5.6875ZM40.625 8.9375C41.9689 8.9375 43.0625 7.84387 43.0625 6.5C43.0625 6.12463 42.9707 5.77362 42.8179 5.45594L45.4017 2.87219C45.6788 2.59594 46.0606 2.4375 46.4523 2.4375C47.2713 2.4375 47.9375 3.10375 47.9375 3.92356C47.9375 4.32006 47.7831 4.69381 47.5028 4.97413L35.3438 17.1324L33.2426 15.0312L39.3364 8.9375H40.625ZM25.1875 43.5386L16.8244 35.1756L15.6756 36.3244L24.0386 44.6875L19.5 49.2261L7.64887 37.375L12.1875 32.8364L14.8631 35.5119L16.0119 34.3631L13.3364 31.6875L14.625 30.3989L26.4761 42.25L25.1875 43.5386ZM34.8034 35.4356L28.8494 36.6267L26 39.4761L17.3989 30.875L21.0543 27.2196L22.2186 21.983C22.5209 20.6245 23.2009 19.3863 24.1849 18.4015L27.0506 15.5358C27.6299 14.9573 28.431 14.625 29.25 14.625C30.069 14.625 30.8701 14.9573 31.4494 15.5358L36.9403 21.0259C37.2206 21.307 37.375 21.6799 37.375 22.0764C37.375 22.8962 36.7088 23.5625 35.8898 23.5625C35.4989 23.5625 35.1163 23.4041 34.8392 23.127L29.25 17.5386L27.625 19.1636V21.8221C27.625 23.7754 26.8637 25.6116 25.4832 26.9929L24.2068 28.2693L25.3557 29.4182L26.6321 28.1418C28.3197 26.4534 29.25 24.2092 29.25 21.8221V19.8364L30.9481 21.5337C30.3794 22.1179 30.0625 22.8849 30.0625 23.7014C30.0625 25.4174 31.4584 26.8125 33.1727 26.8125C33.2256 26.8125 33.2751 26.8003 33.3271 26.7971C33.3247 26.8499 33.3125 26.8994 33.3125 26.9523C33.3125 28.6666 34.7084 30.0625 36.4227 30.0625C36.4756 30.0625 36.5251 30.0503 36.5771 30.0471C36.5747 30.0999 36.5625 30.1494 36.5625 30.2023C36.5625 31.6128 37.5131 32.7941 38.8026 33.1736L38.5393 33.4368C37.5156 34.4606 36.2237 35.152 34.8034 35.4356ZM49.1278 22.8491L41.6756 30.3006L40.7233 31.2528C40.4471 31.5291 40.0644 31.6875 39.6727 31.6875C38.8537 31.6875 38.1875 31.0213 38.1875 30.2023C38.1875 29.8114 38.3459 29.4279 38.6222 29.1517L47.0267 20.7472C47.3038 20.4709 47.6856 20.3125 48.0773 20.3125C48.8963 20.3125 49.5625 20.9788 49.5625 21.7986C49.5625 22.1951 49.4081 22.568 49.1278 22.8491Z" fill="#1F4D7F"/>
<path d="M28.2397 33.4399L29.8339 33.1247L30.1491 34.7188L28.555 35.034L28.2397 33.4399Z" fill="#1F4D7F"/>
<path d="M31.4358 32.821L33.0299 32.5025L33.3484 34.0967L31.7543 34.4152L31.4358 32.821Z" fill="#1F4D7F"/>
<path d="M10.5625 4.0625V8.9375H25.1875V4.0625H10.5625ZM18.6875 5.6875H20.3125V7.3125H18.6875V5.6875ZM17.0625 7.3125H15.4375V5.6875H17.0625V7.3125ZM12.1875 5.6875H13.8125V7.3125H12.1875V5.6875ZM23.5625 7.3125H21.9375V5.6875H23.5625V7.3125Z" fill="#1F4D7F"/>
<path d="M6.5 4.0625C5.15612 4.0625 4.0625 5.15612 4.0625 6.5C4.0625 7.84387 5.15612 8.9375 6.5 8.9375C7.84387 8.9375 8.9375 7.84387 8.9375 6.5C8.9375 5.15612 7.84387 4.0625 6.5 4.0625ZM6.5 7.3125C6.0515 7.3125 5.6875 6.94769 5.6875 6.5C5.6875 6.05231 6.0515 5.6875 6.5 5.6875C6.9485 5.6875 7.3125 6.05231 7.3125 6.5C7.3125 6.94769 6.9485 7.3125 6.5 7.3125Z" fill="#1F4D7F"/>
</svg>
