<svg width="46" height="46" viewBox="0 0 46 46" fill="none" xmlns="http://www.w3.org/2000/svg">
<path d="M45.2812 0.71875H12.2188V4.50225C11.403 3.93156 10.4125 3.59375 9.34375 3.59375C6.56938 3.59375 4.3125 5.85063 4.3125 8.625C4.3125 10.3198 5.15703 11.8184 6.44503 12.7305C3.11291 13.9251 0.71875 17.1063 0.71875 20.8438V25.875C0.71875 27.8566 2.33091 29.4688 4.3125 29.4688V42.4062C4.3125 43.9918 5.60194 45.2812 7.1875 45.2812C8.05 45.2812 8.81619 44.8917 9.34375 44.2879C9.87131 44.8917 10.6375 45.2812 11.5 45.2812C13.0856 45.2812 14.375 43.9918 14.375 42.4062V40.9688H45.2812V0.71875ZM5.75 8.625C5.75 6.64341 7.36216 5.03125 9.34375 5.03125C11.3253 5.03125 12.9375 6.64341 12.9375 8.625C12.9375 10.6066 11.3253 12.2188 9.34375 12.2188C7.36216 12.2188 5.75 10.6066 5.75 8.625ZM12.9375 18.6875V42.4062C12.9375 43.199 12.2928 43.8438 11.5 43.8438C10.7072 43.8438 10.0625 43.199 10.0625 42.4062V24.4375H8.625V42.4062C8.625 43.199 7.98028 43.8438 7.1875 43.8438C6.39472 43.8438 5.75 43.199 5.75 42.4062V18.6875H4.3125V28.0312C3.12369 28.0312 2.15625 27.0638 2.15625 25.875V20.8438C2.15625 16.8806 5.38056 13.6562 9.34375 13.6562C13.3069 13.6562 16.5312 16.8806 16.5312 20.8438V25.875C16.5312 27.0638 15.5638 28.0312 14.375 28.0312V18.6875H12.9375ZM43.8438 39.5312H14.375V29.4688C16.3566 29.4688 17.9688 27.8566 17.9688 25.875V20.8438C17.9688 17.1063 15.5746 13.9251 12.2425 12.7305C13.5305 11.8184 14.375 10.3198 14.375 8.625C14.375 7.682 14.1098 6.80225 13.6562 6.04684V2.15625H43.8438V39.5312Z" fill="#1F4D7F"/>
<path d="M35.2191 33.0625H35.9379C36.3339 33.0625 36.6566 33.3852 36.6566 33.7812C36.6566 34.1773 36.3339 34.5 35.9379 34.5H35.2191V35.9375H35.9379C37.1267 35.9375 38.0941 34.9701 38.0941 33.7812C38.0941 32.5924 37.1267 31.625 35.9379 31.625H35.2191C34.2919 31.625 33.3734 31.9312 32.6323 32.4868L33.4948 33.6375C33.9886 33.2666 34.601 33.0625 35.2191 33.0625Z" fill="#1F4D7F"/>
<path d="M24.0055 33.9257C23.5117 34.2959 22.8994 34.5 22.2812 34.5H21.5625C21.1665 34.5 20.8438 34.1773 20.8438 33.7812C20.8438 33.3852 21.1665 33.0625 21.5625 33.0625H22.2812V31.625H21.5625C20.3737 31.625 19.4062 32.5924 19.4062 33.7812C19.4062 34.9701 20.3737 35.9375 21.5625 35.9375H22.2812C23.2084 35.9375 24.127 35.6313 24.8687 35.0757C25.1979 34.8285 25.5566 34.6107 25.9332 34.4288L25.3086 33.1337C24.8472 33.3565 24.4087 33.6231 24.0055 33.9257Z" fill="#1F4D7F"/>
<path d="M18.6875 9.34375H26.5938V10.7812H20.125C18.9362 10.7812 17.9688 11.7487 17.9688 12.9375C17.9688 14.1263 18.9362 15.0938 20.125 15.0938H26.5938V16.5312H21.5625C20.3737 16.5312 19.4062 17.4987 19.4062 18.6875C19.4062 19.8763 20.3737 20.8438 21.5625 20.8438H26.5938V22.2812H23C21.8112 22.2812 20.8438 23.2487 20.8438 24.4375C20.8438 25.6263 21.8112 26.5938 23 26.5938H26.5938V30.1875C25.3575 29.2603 23.8258 28.75 22.2812 28.75H21.5625C18.7881 28.75 16.5312 31.0069 16.5312 33.7812C16.5312 36.5556 18.7881 38.8125 21.5625 38.8125H22.2812C23.8258 38.8125 25.3575 38.3022 26.5938 37.375C27.8293 36.4478 29.6707 36.4471 30.9062 37.375C32.1425 38.3022 33.6742 38.8125 35.2188 38.8125H35.9375C38.7119 38.8125 40.9688 36.5556 40.9688 33.7812C40.9688 31.0069 38.7119 28.75 35.9375 28.75H35.2188C33.6742 28.75 32.1425 29.2603 30.9062 30.1875V26.5938H34.5C35.6888 26.5938 36.6562 25.6263 36.6562 24.4375C36.6562 23.2487 35.6888 22.2812 34.5 22.2812H30.9062V20.8438H35.9375C37.1263 20.8438 38.0938 19.8763 38.0938 18.6875C38.0938 17.4987 37.1263 16.5312 35.9375 16.5312H30.9062V15.0938H37.375C38.5638 15.0938 39.5312 14.1263 39.5312 12.9375C39.5312 11.7487 38.5638 10.7812 37.375 10.7812H30.9062V9.34375H38.8125C40.0013 9.34375 40.9688 8.37631 40.9688 7.1875C40.9688 5.99869 40.0013 5.03125 38.8125 5.03125H30.9062V3.59375H29.4688V30.8056C28.9944 30.8976 28.5056 30.8969 28.0312 30.8056V3.59375H26.5938V5.03125H18.6875C17.4987 5.03125 16.5312 5.99869 16.5312 7.1875C16.5312 8.37631 17.4987 9.34375 18.6875 9.34375ZM34.5 23.7188C34.896 23.7188 35.2188 24.0415 35.2188 24.4375C35.2188 24.8335 34.896 25.1562 34.5 25.1562H30.9062V23.7188H34.5ZM35.9375 17.9688C36.3335 17.9688 36.6562 18.2915 36.6562 18.6875C36.6562 19.0835 36.3335 19.4062 35.9375 19.4062H30.9062V17.9688H35.9375ZM37.375 12.2188C37.771 12.2188 38.0938 12.5415 38.0938 12.9375C38.0938 13.3335 37.771 13.6562 37.375 13.6562H30.9062V12.2188H37.375ZM38.8125 6.46875C39.2085 6.46875 39.5312 6.79147 39.5312 7.1875C39.5312 7.58353 39.2085 7.90625 38.8125 7.90625H30.9062V6.46875H38.8125ZM31.7688 31.3375C32.757 30.5957 33.9832 30.1875 35.2188 30.1875H35.9375C37.9191 30.1875 39.5312 31.7997 39.5312 33.7812C39.5312 35.7628 37.9191 37.375 35.9375 37.375H35.2188C33.9832 37.375 32.7578 36.9668 31.7688 36.225C30.9041 35.576 29.8317 35.2188 28.75 35.2188C27.6683 35.2188 26.5959 35.576 25.7312 36.225C24.7422 36.9668 23.5168 37.375 22.2812 37.375H21.5625C19.5809 37.375 17.9688 35.7628 17.9688 33.7812C17.9688 31.7997 19.5809 30.1875 21.5625 30.1875H22.2812C23.5168 30.1875 24.7422 30.5957 25.7312 31.3375C27.4613 32.6356 30.0387 32.6356 31.7688 31.3375ZM20.125 13.6562C19.729 13.6562 19.4062 13.3335 19.4062 12.9375C19.4062 12.5415 19.729 12.2188 20.125 12.2188H26.5938V13.6562H20.125ZM21.5625 19.4062C21.1665 19.4062 20.8438 19.0835 20.8438 18.6875C20.8438 18.2915 21.1665 17.9688 21.5625 17.9688H26.5938V19.4062H21.5625ZM23 25.1562C22.604 25.1562 22.2812 24.8335 22.2812 24.4375C22.2812 24.0415 22.604 23.7188 23 23.7188H26.5938V25.1562H23ZM18.6875 6.46875H26.5938V7.90625H18.6875C18.2915 7.90625 17.9688 7.58353 17.9688 7.1875C17.9688 6.79147 18.2915 6.46875 18.6875 6.46875Z" fill="#1F4D7F"/>
</svg>
