<svg width="49" height="49" viewBox="0 0 49 49" fill="none" xmlns="http://www.w3.org/2000/svg">
<path d="M45.0484 11.0645H33.9839V9.48387C33.9839 4.25416 29.7297 0 24.5 0C19.2703 0 15.0161 4.25416 15.0161 9.48387V11.0645H3.95161C1.77282 11.0645 0 12.8373 0 15.0161V40.3065C0 42.4852 1.77282 44.2581 3.95161 44.2581H14.2258V47.4194H11.0645V49H37.9355V47.4194H34.7742V44.2581H45.0484C47.2272 44.2581 49 42.4852 49 40.3065V15.0161C49 12.8373 47.2272 11.0645 45.0484 11.0645ZM30.8226 15.8065V13.4355C31.6943 13.4355 32.4032 14.1444 32.4032 15.0161C32.4032 15.8879 31.6943 16.5968 30.8226 16.5968H30.7682C30.8006 16.3375 30.8226 16.0743 30.8226 15.8065ZM24.5 1.58065C28.858 1.58065 32.4032 5.12591 32.4032 9.48387V12.2944C31.9363 12.0223 31.401 11.8548 30.8226 11.8548H30.6161C30.1407 10.4795 28.8468 9.48387 27.3121 9.48387C26.9335 9.48387 26.5603 9.54484 26.2014 9.66486L24.5 10.2314L22.7986 9.66409C22.4397 9.54484 22.0657 9.48387 21.6872 9.48387C20.1525 9.48387 18.8585 10.4795 18.3827 11.8548H18.1774C17.599 11.8548 17.0637 12.0223 16.5968 12.2944V9.48387C16.5968 5.12591 20.142 1.58065 24.5 1.58065ZM32.4032 28.4516V33.1936H16.5968V28.4516H15.0161V33.1936H11.8548V29.4507C11.8548 27.7007 13.0291 26.1401 14.7109 25.6538L17.7718 24.7701L20.2308 30.5073L24.5 27.0929L28.7684 30.5081L31.2274 24.7709L34.288 25.6546C35.9709 26.1393 37.1452 27.7007 37.1452 29.4507V33.1936H33.9839V28.4516H32.4032ZM21.1095 23.8077L23.3168 26.015L20.8652 27.9758L19.3019 24.3287L21.1095 23.8077ZM28.1348 27.9758L25.6832 26.015L27.8905 23.8077L29.6973 24.3294L28.1348 27.9758ZM26.871 22.5921L24.5 24.9631L22.129 22.5921V21.6636C22.8615 21.9616 23.6614 22.129 24.5 22.129C25.3386 22.129 26.1385 21.9616 26.871 21.6636V22.5921ZM24.5 20.5484C21.8848 20.5484 19.7581 18.4217 19.7581 15.8065V12.9936C19.7581 11.9301 20.6236 11.0645 21.6872 11.0645C21.8952 11.0645 22.0997 11.0977 22.2973 11.1633L24.5 11.8977L26.7019 11.1633C26.8995 11.0977 27.1048 11.0645 27.3121 11.0645C28.3764 11.0645 29.2419 11.9301 29.2419 12.9936V15.8065C29.2419 18.4217 27.1152 20.5484 24.5 20.5484ZM18.2318 16.5968H18.1774C17.3057 16.5968 16.5968 15.8879 16.5968 15.0161C16.5968 14.1444 17.3057 13.4355 18.1774 13.4355V15.8065C18.1774 16.0743 18.1994 16.3375 18.2318 16.5968ZM3.95161 12.6452H15.0161V15.0161C15.0161 16.7596 16.4339 18.1774 18.1774 18.1774H18.6428C19.0523 19.185 19.7129 20.0633 20.5484 20.734V22.3251L14.2733 24.1349C11.9189 24.8145 10.2742 26.9999 10.2742 29.4507V34.7742H38.7258V29.4507C38.7258 26.9999 37.0811 24.8153 34.7267 24.1349L28.4516 22.3251V20.734C29.2871 20.0633 29.9477 19.185 30.3572 18.1774H30.8226C32.5661 18.1774 33.9839 16.7596 33.9839 15.0161V12.6452H45.0484C46.3554 12.6452 47.4194 13.7091 47.4194 15.0161V37.9355H13.6751L11.3042 36.3548H1.58065V15.0161C1.58065 13.7091 2.64457 12.6452 3.95161 12.6452ZM45.0484 42.6774H17.3871V44.2581H33.1936V47.4194H15.8065V42.6774H3.95161C2.64457 42.6774 1.58065 41.6135 1.58065 40.3065V37.9355H10.8249L13.1958 39.5161H47.4194V40.3065C47.4194 41.6135 46.3554 42.6774 45.0484 42.6774Z" fill="#1F4D7F"/>
</svg>
