<svg width="46" height="46" viewBox="0 0 46 46" fill="none" xmlns="http://www.w3.org/2000/svg">
<path d="M45.1381 27.9837L45.1276 27.9657C44.6473 27.2345 43.9143 26.7062 43.0687 26.4819C42.2232 26.2575 41.3246 26.353 40.5451 26.7499L35.7391 29.2077C35.1635 28.3996 34.3166 27.8253 33.3529 27.5894C32.3892 27.3536 31.3728 27.4719 30.4891 27.9229L24.4366 31.0249C24.1209 31.1876 23.7705 31.2714 23.4154 31.2691C23.0603 31.2669 22.711 31.1787 22.3973 31.0122L18.2723 28.8222C16.7113 27.9888 14.9498 27.6043 13.1835 27.7113C11.4171 27.8182 9.71495 28.4125 8.26585 29.4282L7.8001 27.2067C7.77978 27.11 7.74056 27.0183 7.68469 26.9368C7.62883 26.8553 7.55741 26.7856 7.47455 26.7318C7.39168 26.678 7.29901 26.6411 7.20184 26.6233C7.10467 26.6054 7.00493 26.6069 6.90835 26.6277L1.09209 27.8824C0.898484 27.9242 0.729255 28.0408 0.621341 28.2069C0.513428 28.373 0.475593 28.575 0.516095 28.7689L3.90235 44.9037C3.93687 45.0728 4.0287 45.2249 4.16233 45.3342C4.29596 45.4435 4.4632 45.5034 4.63585 45.5037C4.68876 45.5034 4.74152 45.4979 4.79335 45.4872L10.6126 44.2347C10.8064 44.1929 10.9757 44.0762 11.0837 43.9099C11.1916 43.7436 11.2293 43.5414 11.1886 43.3474L10.8886 41.9037L12.8768 41.4754C13.4563 41.3515 14.0528 41.3287 14.6401 41.4079L23.9911 42.4332C25.9326 42.69 27.9009 42.2279 29.5253 41.1342L44.5051 31.0842C44.9949 30.7526 45.3354 30.2425 45.4537 29.663C45.572 29.0835 45.4587 28.4807 45.1381 27.9837ZM5.21485 43.8582L2.13984 29.1919L6.48985 28.2544L9.56485 42.9214L5.21485 43.8582ZM43.6703 29.8407L28.6906 39.8907C27.3624 40.7816 25.7538 41.1552 24.1688 40.9407L14.8178 39.9154C14.0653 39.814 13.3009 39.8444 12.5588 40.0054L10.5773 40.4314L8.60035 31.0249L9.1126 30.6679C10.3358 29.8072 11.7738 29.3028 13.2667 29.2109C14.7595 29.119 16.2486 29.4432 17.5681 30.1474L21.6931 32.3374C22.2203 32.6176 22.8074 32.7661 23.4044 32.7701C24.0013 32.7741 24.5904 32.6337 25.1213 32.3607L31.1753 29.2549C31.7805 28.9456 32.4813 28.8804 33.1332 29.0727C33.785 29.265 34.3382 29.7002 34.6786 30.2884C34.7785 30.4606 34.8067 30.6653 34.757 30.8581C34.7073 31.0509 34.5838 31.2164 34.4131 31.3189L26.0671 36.2689C24.6079 37.1392 22.8698 37.4145 21.2131 37.0377L13.6861 35.2377L13.3381 36.6972L20.8718 38.4972C22.9053 38.9631 25.0401 38.6271 26.8321 37.5589L35.1781 32.6089C35.52 32.4037 35.8012 32.1113 35.993 31.7617C36.1847 31.4121 36.2801 31.0178 36.2693 30.6192L41.2253 28.0834C41.6741 27.8555 42.191 27.8006 42.6777 27.9291C43.1644 28.0575 43.5868 28.3605 43.8646 28.7802L43.8728 28.7929C43.9809 28.9599 44.0202 29.1622 43.9824 29.3575C43.9447 29.5528 43.8329 29.726 43.6703 29.8407Z" fill="#1F4D7F"/>
<path d="M5.35566 30.0359L3.8877 30.3442L4.19572 31.8107L5.66369 31.5024L5.35566 30.0359Z" fill="#1F4D7F"/>
<path d="M22.5585 28.856C22.6868 28.9495 22.8415 28.9999 23.0003 28.9999C23.1591 28.9999 23.3137 28.9495 23.442 28.856C30.9675 23.3668 35.6003 18.1325 37.2833 13.25H41.1383C41.3152 13.7504 41.6633 14.1722 42.1212 14.4407C42.579 14.7093 43.117 14.8074 43.6401 14.7176C44.1632 14.6278 44.6378 14.3561 44.9799 13.9503C45.322 13.5445 45.5096 13.0308 45.5096 12.5C45.5096 11.9692 45.322 11.4556 44.9799 11.0498C44.6378 10.644 44.1632 10.3722 43.6401 10.2824C43.117 10.1927 42.579 10.2907 42.1212 10.5593C41.6633 10.8278 41.3152 11.2496 41.1383 11.75H37.7003C37.8281 11.1971 37.917 10.636 37.9665 10.0708C38.099 8.9318 38.0003 7.77783 37.6763 6.67793C37.3523 5.57802 36.8098 4.55479 36.081 3.66951C35.3414 2.68413 34.3824 1.88465 33.28 1.33449C32.1776 0.784322 30.9621 0.498607 29.73 0.500005C27.2537 0.596832 24.8825 1.52649 23.0003 3.13851C21.118 1.52649 18.7469 0.596832 16.2705 0.500005C15.0383 0.498666 13.8226 0.784397 12.72 1.33455C11.6173 1.8847 10.658 2.68414 9.91804 3.66951C9.18968 4.55499 8.64737 5.57825 8.32353 6.67812C7.99969 7.77799 7.90098 8.93186 8.03329 10.0708C8.48554 15.8345 13.3725 22.1555 22.5585 28.856ZM43.2503 11.75C43.3986 11.75 43.5436 11.794 43.667 11.8764C43.7903 11.9588 43.8864 12.0759 43.9432 12.213C44 12.35 44.0148 12.5008 43.9859 12.6463C43.9569 12.7918 43.8855 12.9254 43.7806 13.0303C43.6757 13.1352 43.5421 13.2067 43.3966 13.2356C43.2511 13.2645 43.1003 13.2497 42.9633 13.1929C42.8262 13.1362 42.7091 13.04 42.6267 12.9167C42.5443 12.7933 42.5003 12.6483 42.5003 12.5C42.5003 12.3011 42.5793 12.1103 42.72 11.9697C42.8606 11.829 43.0514 11.75 43.2503 11.75ZM11.0333 4.67226C11.0684 4.63756 11.0998 4.59936 11.127 4.55826C11.7284 3.76342 12.5058 3.11877 13.3983 2.6749C14.2907 2.23103 15.2738 2.00002 16.2705 2.00001C19.746 2.00001 22.443 4.64676 22.47 4.67301C22.5397 4.74274 22.6224 4.79806 22.7135 4.8358C22.8045 4.87354 22.9021 4.89297 23.0007 4.89297C23.0992 4.89297 23.1968 4.87354 23.2879 4.8358C23.3789 4.79806 23.4616 4.74274 23.5313 4.67301C23.5583 4.64526 26.2358 2.00001 29.73 2.00001C30.7274 1.99624 31.7119 2.22559 32.6049 2.66975C33.4979 3.11392 34.2748 3.76061 34.8735 4.55826C34.9008 4.59936 34.9322 4.63756 34.9673 4.67226C35.5619 5.40452 36.0018 6.24979 36.2604 7.15694C36.519 8.06409 36.5909 9.01427 36.4718 9.95001C36.4219 10.5578 36.319 11.1601 36.1643 11.75H30.1853L27.4013 6.87501C27.3315 6.75186 27.2284 6.65096 27.1037 6.58397C26.979 6.51698 26.8379 6.48664 26.6967 6.49644C26.5556 6.50625 26.42 6.5558 26.3058 6.63938C26.1916 6.72296 26.1034 6.83715 26.0513 6.96876L22.3425 16.25L19.9665 8.52951C19.9239 8.39102 19.8421 8.26784 19.731 8.17485C19.6199 8.08186 19.4843 8.02304 19.3404 8.00551C19.1966 7.98798 19.0508 8.01248 18.9206 8.07606C18.7904 8.13963 18.6814 8.23956 18.6068 8.36376L16.575 11.75H11.7503V13.25H17.0003C17.1297 13.25 17.2569 13.2165 17.3695 13.1527C17.4822 13.089 17.5764 12.9972 17.643 12.8863L19.0253 10.5785L21.531 18.7205C21.5773 18.8681 21.6681 18.9978 21.791 19.0918C21.9138 19.1857 22.0627 19.2394 22.2173 19.2455H22.2503C22.4003 19.2456 22.5469 19.2006 22.6711 19.1165C22.7953 19.0325 22.8914 18.913 22.947 18.7738L26.8695 8.96601L29.0993 12.866C29.1641 12.9819 29.2585 13.0785 29.3729 13.146C29.4873 13.2135 29.6175 13.2494 29.7503 13.25H35.6753C34.287 16.784 30.834 21.524 23.0003 27.3193C12.432 19.5013 9.83704 13.601 9.53329 10.01C9.40514 9.06501 9.47213 8.10377 9.73013 7.18568C9.98812 6.2676 10.4316 5.41217 11.0333 4.67226Z" fill="#1F4D7F"/>
<path d="M6.5 11.75H0.5V13.25H6.5V11.75Z" fill="#1F4D7F"/>
</svg>
