<svg width="59" height="59" viewBox="0 0 59 59" fill="none" xmlns="http://www.w3.org/2000/svg">
<g clip-path="url(#clip0)">
<path d="M48.5814 23.4506V21.6978C48.5814 21.213 48.1884 20.8196 47.7032 20.8196C47.2184 20.8196 46.8254 21.213 46.8254 21.6978V24.0111C46.8254 24.3577 47.0293 24.6719 47.3462 24.8132C53.2884 27.4591 57.1286 33.3703 57.1286 39.8725C57.1286 48.9576 49.7364 56.3488 40.6509 56.3488C38.8004 56.3488 36.9963 56.0467 35.2727 55.4503C35.3371 55.3526 35.3996 55.2532 35.459 55.1505C35.7012 54.731 35.8853 54.293 36.0177 53.8451C37.5072 54.3412 39.061 54.5928 40.6514 54.5928C48.7686 54.5928 55.3726 47.9893 55.3726 39.8725C55.3726 35.8946 53.7242 32.0266 50.8505 29.2601C50.6867 29.1025 50.4684 29.0143 50.2415 29.0143H31.0621C30.8353 29.0143 30.6169 29.1021 30.4531 29.2596C28.9114 30.7437 27.7217 32.5294 26.9488 34.5006L25.8581 32.6113C27.5605 29.1471 30.4211 26.3878 33.9574 24.8127C34.2743 24.6719 34.4782 24.3577 34.4782 24.0106V15.3176H46.8254V18.1854C46.8254 18.6706 47.2184 19.0636 47.7036 19.0636C48.1884 19.0636 48.5814 18.6706 48.5814 18.1854V15.3176H49.3529C51.0958 15.3176 52.5138 13.8997 52.5138 12.1567C52.5138 10.4143 51.0958 8.99634 49.3529 8.99634H45.7734C45.2886 8.99634 44.8957 9.38931 44.8957 9.8741C44.8957 10.3589 45.2886 10.7523 45.7734 10.7523H49.3529C50.1276 10.7523 50.7578 11.3825 50.7578 12.1567C50.7578 12.9314 50.1276 13.5616 49.3529 13.5616H47.709C47.7072 13.5616 47.7054 13.5616 47.7036 13.5616H33.6004C33.5982 13.5616 33.5964 13.5616 33.5946 13.5616H32.1424C31.3678 13.5616 30.7376 12.9314 30.7376 12.1567C30.7376 11.3825 31.3678 10.7523 32.1424 10.7523H42.2615C42.7463 10.7523 43.1393 10.3589 43.1393 9.8741C43.1393 9.38931 42.7463 8.99634 42.2615 8.99634H32.1424C30.3995 8.99634 28.9816 10.4143 28.9816 12.1567C28.9816 13.8997 30.3995 15.3176 32.1424 15.3176H32.7222V23.4506C29.3966 25.0585 26.6485 27.6288 24.8228 30.8185L24.306 29.9236V20.9366H25.0285C26.7714 20.9366 28.1894 19.5187 28.1894 17.7758C28.1894 16.0333 26.7714 14.6154 25.0285 14.6154H11.1162C9.37326 14.6154 7.95533 16.0333 7.95533 17.7758C7.95533 19.5187 9.37326 20.9366 11.1162 20.9366H11.8386V29.9236L0.68565 49.2411C-0.382521 51.0912 -0.382521 53.3005 0.68565 55.1505C1.75382 57.0006 3.66645 58.1052 5.80279 58.1052H20.8387C21.3239 58.1052 21.7169 57.7118 21.7169 57.227C21.7169 56.7422 21.3239 56.3492 20.8387 56.3492H5.80279C4.30159 56.3492 2.95703 55.5728 2.20621 54.2723C1.45538 52.9723 1.45538 51.4194 2.20621 50.1194L13.4771 30.5979C13.5541 30.4642 13.5946 30.313 13.5946 30.1586V20.9366H22.5501V30.1586C22.5501 30.313 22.5906 30.4642 22.6676 30.5979L33.938 50.1194C34.6889 51.4194 34.6889 52.9719 33.938 54.2723C33.1877 55.5728 31.8431 56.3492 30.3415 56.3492H24.3511C23.8663 56.3492 23.4733 56.7422 23.4733 57.227C23.4733 57.7118 23.8663 58.1052 24.3511 58.1052H30.3415C31.7036 58.1052 32.9738 57.6542 33.9934 56.8493C36.1126 57.6821 38.3494 58.1052 40.6509 58.1052C50.7051 58.1052 58.8845 49.9263 58.8845 39.8729C58.8845 32.8693 54.859 26.4859 48.5814 23.4506ZM12.7164 19.1807H11.1162C10.3415 19.1807 9.71131 18.5505 9.71131 17.7758C9.71131 17.0015 10.3415 16.3714 11.1162 16.3714H25.0285C25.8027 16.3714 26.4329 17.0015 26.4329 17.7758C26.4329 18.5505 25.8027 19.1807 25.0285 19.1807H12.7164ZM28.1254 36.5388C28.7066 34.3606 29.8382 32.3786 31.4227 30.7707H49.8805C52.259 33.1884 53.6166 36.4857 53.6166 39.8725C53.6166 47.0211 47.7999 52.8368 40.6509 52.8368C39.1376 52.8368 37.662 52.5785 36.2558 52.0685C36.2346 51.0962 35.9708 50.1275 35.459 49.2411L28.1254 36.5388Z" fill="#1F4D7F"/>
<path d="M32.4175 53.3946C32.8573 52.633 32.8573 51.7593 32.4175 50.9972L24.1355 36.6523C23.9788 36.3808 23.689 36.2134 23.3752 36.2134H12.7696C12.4558 36.2134 12.1659 36.3808 12.0093 36.6523L3.72681 50.9972C3.28703 51.7588 3.28703 52.6325 3.72681 53.3941C4.16659 54.1562 4.92327 54.5929 5.80283 54.5929H30.3415C31.2211 54.5929 31.9777 54.1562 32.4175 53.3946ZM5.24782 52.5164C5.06281 52.1959 5.1974 51.9632 5.24782 51.8754L13.2764 37.9694H22.8684L30.897 51.8754C30.9474 51.9627 31.082 52.1959 30.8965 52.5164C30.7115 52.8369 30.4428 52.8369 30.3415 52.8369H5.80283C5.702 52.8369 5.43282 52.8369 5.24782 52.5164Z" fill="#1F4D7F"/>
<path d="M20.7723 45.8863C20.468 45.1652 19.4003 45.1828 19.1351 45.9269C18.8691 46.6745 19.6937 47.3758 20.3905 46.9883C20.7741 46.7749 20.9393 46.291 20.7723 45.8863Z" fill="#1F4D7F"/>
<path d="M16.0876 11.1038C16.8519 11.1038 17.2517 10.1441 16.7084 9.60392C16.4059 9.30323 15.9179 9.26542 15.5718 9.51479C15.29 9.71826 15.154 10.0851 15.2328 10.4236C15.3251 10.8157 15.6838 11.1038 16.0876 11.1038Z" fill="#1F4D7F"/>
<path d="M19.0968 7.6189C19.7666 8.07038 20.6596 7.40103 20.4233 6.634C20.313 6.27615 19.9808 6.02092 19.605 6.01147C19.2228 6.00247 18.8699 6.25004 18.7506 6.61375C18.6304 6.98061 18.7686 7.40778 19.0968 7.6189Z" fill="#1F4D7F"/>
<path d="M16.8675 2.13251C17.0138 2.48002 17.373 2.70374 17.7511 2.67178C18.0914 2.64297 18.388 2.41295 18.5042 2.0929C18.7734 1.34928 17.955 0.656522 17.2645 1.02248C16.8733 1.22999 16.6946 1.72334 16.8675 2.13251Z" fill="#1F4D7F"/>
<path d="M47.5505 34.7926C47.6779 35.1181 48.0141 35.3359 48.3607 35.3359C48.774 35.3355 49.1413 35.0339 49.2223 34.6288C49.3727 33.8797 48.5174 33.3099 47.8809 33.7226C47.5325 33.9486 47.3884 34.4091 47.5505 34.7926Z" fill="#1F4D7F"/>
<path d="M48.8003 39.4533C48.0535 39.609 47.8429 40.6178 48.4843 41.044C48.7958 41.2511 49.2162 41.2363 49.5115 41.0062C49.819 40.7668 49.9315 40.3382 49.7825 39.9786C49.6236 39.5955 49.2077 39.3732 48.8003 39.4533Z" fill="#1F4D7F"/>
<path d="M36.7082 47.2606C36.8527 47.6031 37.2011 47.8241 37.5738 47.8007C37.9177 47.7787 38.2242 47.55 38.3431 47.2264C38.6163 46.4832 37.7993 45.7828 37.1052 46.1501C36.7136 46.3576 36.5358 46.8514 36.7082 47.2606Z" fill="#1F4D7F"/>
<path d="M33.3095 38.6885C32.93 38.7678 32.6397 39.0892 32.6068 39.4763C32.5758 39.8404 32.7819 40.1924 33.1128 40.3455C33.4373 40.4949 33.8303 40.4306 34.0887 40.1834C34.3525 39.9318 34.4312 39.5303 34.2854 39.1972C34.122 38.8258 33.7083 38.6089 33.3095 38.6885Z" fill="#1F4D7F"/>
<path d="M43.3839 37.7782C43.5149 38.1117 43.8611 38.3278 44.2153 38.3197C44.575 38.3116 44.8995 38.0757 45.0211 37.7381C45.1426 37.4001 45.0382 37.013 44.7676 36.7784C44.4728 36.5228 44.0312 36.4976 43.7067 36.7127C43.3641 36.9409 43.2237 37.3974 43.3839 37.7782Z" fill="#1F4D7F"/>
<path d="M14.6261 47.7043C14.4897 47.3807 14.1683 47.1624 13.8154 47.1624C13.4481 47.1624 13.1136 47.4 12.9889 47.7444C12.713 48.5087 13.5836 49.2114 14.2741 48.7891C14.636 48.5677 14.7917 48.0968 14.6261 47.7043Z" fill="#1F4D7F"/>
<path d="M15.9268 41.4985C15.5532 41.5759 15.2611 41.8901 15.225 42.2732C15.1908 42.6351 15.3871 42.9907 15.7152 43.1491C16.0551 43.3125 16.4692 43.2383 16.7307 42.9673C16.9891 42.6999 17.0476 42.2871 16.8784 41.9576C16.7019 41.6146 16.3054 41.4224 15.9268 41.4985Z" fill="#1F4D7F"/>
</g>
<defs>
<clipPath id="clip0">
<rect width="59" height="59" fill="white"/>
</clipPath>
</defs>
</svg>
