<svg width="52" height="52" viewBox="0 0 52 52" fill="none" xmlns="http://www.w3.org/2000/svg">
<path d="M43.6622 44.1338C40.8468 43.383 38.8806 40.8234 38.8806 37.9104V23.2793C43.572 18.7543 46.7813 12.7995 47.8807 6.20081L48.0684 5.07367L46.2531 4.77192L46.0663 5.89805C44.9953 12.3183 41.8091 18.0992 37.1434 22.4033H37.0404V22.4962C34.9251 24.4292 32.5098 26.0615 29.8518 27.3128L28.5535 27.9237H23.4222C20.2608 26.5988 17.4123 24.7182 14.9584 22.4346V22.4042H14.9244C10.2053 17.9988 6.97866 12.0717 5.99869 5.53821L5.74752 3.86548L3.92763 4.13787L4.17879 5.8106C5.18263 12.5051 8.39637 18.608 13.1182 23.2351V37.9094C13.1182 40.8224 11.152 43.382 8.33747 44.1338L0 46.3567L0.474805 48.1342L8.81258 45.9113C12.4312 44.9453 14.9587 41.6551 14.9587 37.9104V24.8876C17.3215 26.8593 19.9823 28.4989 22.8888 29.695C23.0001 29.7419 23.1198 29.7648 23.2394 29.7648H28.7599C28.8951 29.7648 29.0285 29.7354 29.1518 29.6774L30.635 28.979C32.9563 27.8869 35.101 26.5197 37.0406 24.9298V37.9102C37.0406 41.6549 39.568 44.9451 43.1876 45.9111L51.5254 48.134L52 46.3567L43.6622 44.1338Z" fill="#1F4D7F"/>
<path d="M31.7886 13.4731C31.4234 13.8394 30.8998 14.0049 30.3883 13.9221L26.5663 13.2854C26.19 13.2229 25.809 13.2229 25.4327 13.2854L21.6116 13.9221C21.1019 14.0058 20.5765 13.8394 20.2104 13.4731L18.9084 14.7741C19.6942 15.559 20.8176 15.9206 21.9143 15.7375L25.7363 15.1008C25.9111 15.0722 26.0896 15.0722 26.2644 15.1008L30.0864 15.7375C30.2741 15.7687 30.4618 15.7844 30.6495 15.7844C31.5566 15.7844 32.4399 15.4247 33.0904 14.7741L31.7886 13.4731Z" fill="#1F4D7F"/>
<path d="M23.748 16.4947L24.5706 18.1407C25.4659 17.6935 26.534 17.6935 27.4284 18.1407L28.2509 16.4947C26.8413 15.7908 25.1575 15.7908 23.748 16.4947Z" fill="#1F4D7F"/>
<path d="M32.2749 32.8988C31.3925 32.0155 30.0713 31.7451 28.9111 32.2079L25.9991 33.3736L23.0861 32.2079C21.925 31.7451 20.6056 32.0156 19.7224 32.8988C18.9982 33.623 18.6754 34.6562 18.8593 35.6627L20.1649 42.8439C20.4344 44.3281 21.7253 45.4054 23.2343 45.4054H24.1682C24.8352 45.4054 25.4701 45.1975 25.9991 44.812C26.5282 45.1975 27.1631 45.4054 27.8301 45.4054H28.764C30.2729 45.4054 31.5628 44.3281 31.8324 42.8439L33.138 35.6637C33.3211 34.6562 32.999 33.623 32.2749 32.8988ZM31.3291 35.3334L30.0236 42.5146C29.9122 43.1236 29.3832 43.5653 28.764 43.5653H27.8301C27.4878 43.5653 27.1667 43.4319 26.9257 43.1909L26.6497 42.9148C26.4702 42.7354 26.2347 42.6453 25.9991 42.6453C25.7636 42.6453 25.5281 42.7355 25.3486 42.9148L25.0726 43.1909C24.8306 43.4319 24.5095 43.5653 24.1682 43.5653H23.2343C22.616 43.5653 22.086 43.1237 21.9756 42.5146L20.6701 35.3325C20.5946 34.9203 20.7271 34.4979 21.0243 34.1998C21.3868 33.8383 21.9278 33.725 22.4035 33.9165L25.6578 35.2184C25.8768 35.3068 26.1224 35.3068 26.3414 35.2184L29.5948 33.9165C30.0696 33.7251 30.6114 33.8374 30.9749 34.1998C31.2721 34.497 31.4045 34.9202 31.3291 35.3334Z" fill="#1F4D7F"/>
<path d="M28.762 36.2056H26.9219V38.0457H28.762V36.2056Z" fill="#1F4D7F"/>
<path d="M25.0816 36.2056H23.2415V38.0457H25.0816V36.2056Z" fill="#1F4D7F"/>
<path d="M28.762 39.8857H26.9219V41.7259H28.762V39.8857Z" fill="#1F4D7F"/>
<path d="M25.0816 39.8857H23.2415V41.7259H25.0816V39.8857Z" fill="#1F4D7F"/>
</svg>
