<svg width="44" height="47" viewBox="0 0 44 47" fill="none" xmlns="http://www.w3.org/2000/svg">
<path d="M42.6259 29.5571C40.6399 26.0426 36.2487 24.8398 32.8083 26.8694L29.1591 29.022V21.0508C29.1591 20.0653 28.8401 19.0874 28.2607 18.297L23.7688 12.1778V9.57203C24.8144 9.19309 25.5656 8.17286 25.5656 6.9761V2.75372C25.5654 1.23531 24.3564 0 22.8703 0H6.69919C5.21309 0 4.00397 1.23531 4.00397 2.75372V6.9762C4.00397 8.17277 4.75515 9.19318 5.80076 9.57212V12.1779L1.30848 18.2975C0.729346 19.0875 0.4104 20.0653 0.4104 21.0508V38.8282C0.4104 41.3589 2.42551 43.4177 4.90232 43.4177H19.3404C21.3548 46.8677 25.6984 48.0223 29.1032 46.0136L39.9955 39.5881C43.4055 37.5761 44.6219 33.0908 42.6259 29.5571ZM5.80076 2.75372C5.80076 2.24755 6.20379 1.83575 6.6991 1.83575H22.8702C23.3656 1.83575 23.7686 2.24755 23.7686 2.75372V6.9762C23.7686 7.48236 23.3656 7.89407 22.8702 7.89407H6.69919C6.20379 7.89407 5.80085 7.48227 5.80085 6.9762V2.75372H5.80076ZM2.74634 19.3984L7.41785 13.0345C7.53447 12.8757 7.59754 12.6824 7.59754 12.4837V9.73001H21.9718V11.5659H13.8863C13.3902 11.5659 12.9879 11.9769 12.9879 12.4838C12.9879 12.9907 13.3902 13.4018 13.8863 13.4018H22.421L26.8228 19.3981C27.1104 19.7906 27.2891 20.2601 27.3431 20.7452H2.22632C2.28023 20.26 2.45893 19.7905 2.74634 19.3984ZM4.90241 41.5819C3.4163 41.5819 2.20728 40.3466 2.20728 38.8282V37.9011H18.5296C18.2447 39.0912 18.2466 40.3624 18.5729 41.582H4.90241V41.5819ZM19.2343 36.0743H2.20719V22.5808H27.3622V30.0818L21.9159 33.2949C20.7804 33.9651 19.8626 34.9192 19.2343 36.0743ZM28.2049 44.4237C25.6267 45.9449 22.3321 45.0453 20.8423 42.4091C19.3454 39.7476 20.2526 36.3966 22.8146 34.8846L27.691 32.0079L33.0814 41.547L28.2049 44.4237ZM39.097 37.9983L34.6375 40.6291L29.247 31.0899L33.7067 28.4593C36.2866 26.9375 39.58 27.8387 41.0698 30.4749C42.5662 33.1244 41.6562 36.4883 39.097 37.9983Z" fill="#1F4D7F"/>
</svg>
